<?xml version="1.0" encoding="utf-8"?>
<!-- Generator: Adobe Illustrator 26.0.0, SVG Export Plug-In . SVG Version: 6.00 Build 0)  -->
<svg version="1.1" id="Camada_1" xmlns="http://www.w3.org/2000/svg" xmlns:xlink="http://www.w3.org/1999/xlink" x="0px" y="0px"
	 viewBox="0 0 500 300" style="enable-background:new 0 0 500 300;" xml:space="preserve">
<style type="text/css">
	.st0{fill:#FDFDFD;}
</style>
<path class="st0" d="M71.67,88.26c1.85,0.93,3.94,0.8,5.9,1.27c8.15,1.99,14.91,6.22,20.49,12.4c0.78,0.86,1.87,1.8,0.71,3.06
	c-1.24,1.35-2.29,0.32-3.3-0.45c-14.87-11.21-35.94-9.33-47.78,4.26c-0.3,0.35-0.57,0.72-1.13,1.41c4.27-0.4,8.15-0.89,12.05-1.09
	c15.04-0.79,29.71,0.82,43.57,7.2c4.15,1.91,7.94,4.39,11,7.84c5.65,6.37,5.9,13.7,0.59,20.37c-4.81,6.03-11.43,9.51-18.37,12.46
	c-2.12,0.9-4.29,1.69-6.48,2.39c-0.96,0.31-2.12,0.46-2.65-0.85c-0.54-1.35,0.47-1.92,1.4-2.36c4.33-2.04,8.55-4.23,12.23-7.35
	c7.69-6.51,7.62-13.41-0.39-19.57c-6.52-5.01-14.22-7.33-22.12-9.01c-11.21-2.38-22.54-2.9-33.96-2.01
	c-1.36,0.11-2.07,0.47-2.58,1.82c-4.5,11.84-1.19,26.68,8.01,35.46c0.29,0.27,0.58,0.54,0.87,0.81c0.79,0.74,1.12,1.57,0.38,2.52
	c-0.73,0.94-1.65,0.81-2.56,0.28c-2.57-1.49-4.86-3.34-6.9-5.47c-8.55-8.91-12.25-19.54-10.87-31.82c0.19-1.72-0.29-1.71-1.57-1.37
	c-2.54,0.67-5.1,1.22-7.63,1.94c-1.21,0.35-2.31,0.41-3.41-0.23c0-0.64,0-1.27,0-1.91c0.77-1.53,2.2-2.2,3.65-2.88
	c2.81-1.3,5.67-2.47,8.59-3.49c1.3-0.46,2.06-1.27,2.63-2.52c5.31-11.53,14.25-18.78,26.39-22.23c2.14-0.61,4.39-0.35,6.53-0.88
	c0.32,0,0.64,0,0.96,0c1.75,0.39,3.51,0.39,5.26,0C71.35,88.26,71.51,88.26,71.67,88.26z"/>
<path class="st0" d="M174.19,156.02c-1.85-9.97-7-14.5-17.12-15.37c-3.32-0.29-6.5,0.52-9.84,1.46v-20.22
	c-2.86,0.79-5.22,2.21-7.61,3.6c-2.93,1.69-4.07,3.99-4.04,7.44c0.14,15.5,0.13,31.02-0.01,46.52c-0.02,2.41,0.9,3.07,2.9,3.62
	c2.73,0.76,5.61,0.61,8.25,1.69h1.43c1.6-0.75,3.19-0.75,4.79,0h0.95c0.37-0.79,1.11-0.43,1.68-0.52
	c7.91-1.23,14.07-4.93,17.3-12.52C175.02,166.67,175.17,161.33,174.19,156.02z M161.83,167.57c-2.29,7.05-7.97,7.97-13.46,7.24
	c-1.14-0.15-1.09-0.91-1.09-1.74v-10.23c0-3.26,0.04-6.5-0.02-9.76c-0.02-1.12,0.31-1.79,1.41-2.1c2.41-0.67,4.86-0.98,7.31-0.48
	c3.74,0.76,5.58,3.44,6.25,6.96C162.88,160.84,162.9,164.26,161.83,167.57z"/>
<path class="st0" d="M288.31,124.16v-2.31c-3.44,1.05-6.3,2.7-9.03,4.62c-1.77,1.25-2.63,2.83-2.55,5.05
	c0.11,3.17,0.03,6.34,0.03,9.57c-0.89-0.11-1.58-0.21-2.29-0.28c-6.9-0.69-13.38,0.23-18.64,5.24c-6.25,5.95-7.28,13.54-6.15,21.55
	c1.28,8.91,6.67,14.36,15.39,16.35c0.87,0.2,1.94-0.09,2.6,0.8h0.96c1.76-0.39,3.51-0.39,5.26,0h1.44c0.2-0.64,0.74-0.44,1.18-0.47
	c3.26-0.25,6.44-0.95,9.62-1.65c1.72-0.39,2.24-1.12,2.23-2.89C288.29,161.21,288.31,142.68,288.31,124.16z M274.94,174.79
	c-8.59,1.36-13.49-2.73-13.56-11.45c-0.02-1.74-0.01-3.48,0.37-5.2c1.49-6.63,7.62-10.02,14.06-7.81c1.13,0.39,0.92,1.12,0.92,1.86
	c0.02,3.41,0.01,6.83,0.01,10.25c0,3.41-0.07,6.83,0.03,10.24C276.82,174.11,276.31,174.57,274.94,174.79z"/>
<path class="st0" d="M446.93,156.32c-1.89-9.23-7.6-14.56-16.94-15.78c-10.72-1.41-19.31,4.08-22.04,14.16
	c-1.22,4.51-1.32,9.11-0.44,13.69c1.67,8.56,6.59,14.05,15.33,15.82c0.43,0.08,1-0.09,1.17,0.55h0.96c1.5-0.55,3.05-0.1,4.58-0.24
	c6.92,0.13,12.02-2.89,15.49-8.85c1.39-2.38,1.96-4.97,2.4-7.62v-10.52C446.83,157.31,447.01,156.75,446.93,156.32z M434.48,170.1
	c-1.22,3.32-3.72,5.02-7.31,5.02c-3.5,0-5.97-1.57-7.11-4.91c-1.76-5.12-1.72-10.31,0.03-15.41c1.14-3.34,3.65-4.96,7.07-4.97
	c3.55-0.01,6.03,1.68,7.29,5.04c0.94,2.5,1.1,5.11,1.08,7.73C435.58,165.16,435.36,167.68,434.48,170.1z"/>
<path class="st0" d="M332.67,157.47c-0.48-8.62-5.34-14.79-12.95-16.56c-9.02-2.09-17.8,1.34-21.93,8.66
	c-3.2,5.66-3.62,11.82-2.72,18.06c1.29,8.91,6.67,14.42,15.43,16.33c0.86,0.19,1.93-0.1,2.59,0.8h0.96c1.6-0.41,3.19-0.41,4.78,0
	h1.44c1.02-0.9,2.37-0.56,3.54-0.84c7.12-1.67,6.49-0.97,6.45-8.44c0-1.78-0.44-2.54-2.54-1.91c-4.21,1.27-8.57,1.83-12.98,1.18
	c-3.84-0.55-6.59-2.5-7.97-6.28c-0.65-1.78-0.53-2.5,1.69-2.46c7.24,0.13,14.5-0.02,21.74,0.1c1.95,0.03,2.56-0.63,2.51-2.43
	C332.64,161.61,332.79,159.53,332.67,157.47z M320.52,157.45c-2.15-0.03-4.28,0-6.41,0c-2.15,0-4.28-0.03-6.43,0.01
	c-0.97,0.02-1.45-0.16-1.25-1.33c0.89-5.12,6.84-8.31,11.55-6.12c2.57,1.2,3.53,3.47,3.88,6.11
	C322.01,157.26,321.47,157.47,320.52,157.45z"/>
<path class="st0" d="M243.18,155.63c-0.31-8.51-5.5-13.75-13.92-14.89c-3.5-0.46-6.98-0.41-10.47-0.01
	c-6.61,0.73-7.46,1.8-6.47,8.34c0.22,1.44,0.69,2.05,2.3,1.63c3.49-0.9,7.07-1.06,10.65-0.78c4.01,0.32,6.22,2.35,6.78,5.82
	c0.22,1.41,0.01,1.79-1.53,1.6c-4.3-0.53-8.57-0.29-12.74,1.01c-6.36,1.98-9.35,6.02-9.3,12.46c0.05,6.44,3.37,10.72,9.59,12.61
	c1.71,0.52,3.55,0.43,5.15,1.34h0.95c1.76-0.39,3.51-0.39,5.26,0h1.44c0.26-0.76,0.92-0.42,1.42-0.48c3.23-0.4,6.44-0.99,9.58-1.84
	c1.01-0.26,1.45-0.66,1.44-1.76C243.25,172.33,243.48,163.97,243.18,155.63z M232.21,170.19c0,5.41,0,5.42-5.49,5.18
	c-1.51-0.08-3.03-0.14-4.46-0.73c-2.05-0.85-3.12-2.38-3.07-4.62c0.06-2.26,1.23-3.69,3.37-4.37c2.81-0.89,5.67-0.51,8.52-0.45
	c0.97,0.01,1.17,0.58,1.14,1.41C232.18,167.8,232.21,169,232.21,170.19z"/>
<path class="st0" d="M347.99,184.76c-2.05-1.08-4.39-0.95-6.56-1.56c-2.48-0.7-3.89-1.94-3.7-4.63c0.04-0.55-0.05-1.11-0.04-1.67
	c0.08-4.29,0.09-4.28,4.08-3.09c3.14,0.94,6.34,1.53,9.63,1.38c1.1-0.05,2.23-0.22,3.27-0.56c1.39-0.46,2.22-1.54,2.33-3.02
	c0.1-1.37-0.38-2.54-1.63-3.21c-1.26-0.67-2.57-1.24-3.87-1.82c-1.74-0.78-3.53-1.45-5.24-2.28c-6.19-3.01-8.57-7.08-7.83-13.26
	c0.59-4.89,5.01-9.03,10.98-10.16c5.18-0.98,10.29-0.39,15.34,0.94c1.52,0.4,2.27,1.23,2.29,2.85c0.02,1.99,0.73,4.41-0.39,5.82
	c-1.31,1.64-3.45-0.29-5.26-0.43c-2.46-0.18-4.9-0.53-7.37-0.29c-1.65,0.16-3.25,0.49-3.65,2.43c-0.4,1.97,0.95,2.87,2.48,3.57
	c3.11,1.41,6.28,2.68,9.32,4.23c5.06,2.58,7,6.94,6.49,12.44c-0.61,6.63-5.25,10.97-12.51,11.86c-0.32,0.04-0.63,0.05-0.95,0.07
	c-1.9,0.52-3.89-0.24-5.79,0.41C348.94,184.76,348.46,184.76,347.99,184.76z"/>
<path class="st0" d="M391.01,184.76c-0.49-0.89-1.42-0.52-2.13-0.68c-7.74-1.74-12.55-6.5-14.54-14.1
	c-1.33-5.1-1.29-10.25,0.1-15.32c2.75-10.01,11.04-15.28,22.12-14.17c2.94,0.29,5.8,0.87,8.52,2.1c1.08,0.49,1.54,0.86,0.65,2.02
	c-1.26,1.64-2.16,3.51-2.8,5.49c-0.31,0.95-0.72,1.59-1.86,0.94c-0.4-0.23-0.9-0.3-1.36-0.43c-8.39-2.31-13.8,1.62-14.16,10.29
	c-0.05,1.27-0.04,2.55,0.08,3.81c0.77,8.21,6.28,12.03,14.15,9.61c2.04-0.63,2.92-0.36,3.57,1.64c0.66,2.05,2.04,3.75,3.3,5.69
	c-2.46,1.64-5.24,2.1-8,2.62c-0.49,0.09-1.16-0.27-1.42,0.5c-0.32,0-0.64,0-0.96,0c-1.43-0.38-2.87-0.38-4.3,0
	C391.65,184.76,391.33,184.76,391.01,184.76z"/>
<path class="st0" d="M429.77,184.34c8.25-0.6,14.29-5.52,16.65-13.52c0.28-0.94,0.18-2.03,1-2.79c0,5.18-0.04,10.35,0.03,15.53
	c0.01,1.03-0.2,1.24-1.23,1.23c-5.5-0.07-11-0.03-16.49-0.03c-0.16-0.11-0.21-0.21-0.14-0.29
	C429.65,184.39,429.71,184.34,429.77,184.34z"/>
<path class="st0" d="M71.19,88.26c-1.75,0.78-3.51,0.78-5.26,0C67.68,88.26,69.44,88.26,71.19,88.26z"/>
<path class="st0" d="M192.47,146.63c3.55-4.35,7.81-6.11,13.06-5.59c1.54,0.15,2.08,0.79,2,2.23c-0.03,0.55,0.11,1.11,0.14,1.66
	c0.29,5.15,0.03,5.44-5.01,5.69c-4.83,0.24-8.32,3.75-9.12,9.12c-0.65,4.36-0.27,8.74-0.35,13.11c-0.06,3.02-0.06,6.05,0.01,9.07
	c0.03,1.25-0.24,1.85-1.66,1.93c-2.79,0.16-5.56,0.24-8.34,0.01c-1.21-0.1-1.6-0.52-1.6-1.75c0.04-13.06,0.04-26.11,0-39.17
	c0-1.16,0.23-1.82,1.54-1.77c0.63,0.02,1.27-0.13,1.9-0.18C190.79,140.48,191.18,140.76,192.47,146.63z"/>
<path class="st0" d="M78.14,167.05c0,4.7-0.08,9.39,0.04,14.09c0.05,2.11-0.55,3.18-2.83,2.94c-2.35-0.25-5.39,1-6.88-0.52
	c-1.38-1.4-0.37-4.4-0.39-6.69c-0.05-6.69,0.02-13.37-0.05-20.06c-0.01-1.35,0.34-2.2,1.61-2.82c1.92-0.96,3.72-2.15,5.6-3.18
	c2.16-1.18,2.89-0.76,2.9,1.67C78.16,157.34,78.14,162.19,78.14,167.05z"/>
<path class="st0" d="M65.54,156.42c0,9-0.01,17.57,0.02,26.13c0,1.11-0.32,1.55-1.48,1.53c-6.87-0.11-5.47,0.77-5.56-5.22
	c-0.08-5.24,0.07-10.48-0.06-15.71c-0.05-2.01,0.57-3.29,2.41-4.13C62.35,158.35,63.74,157.43,65.54,156.42z"/>
</svg>
