<?xml version="1.0" encoding="utf-8"?>
<!-- Generator: Adobe Illustrator 26.0.0, SVG Export Plug-In . SVG Version: 6.00 Build 0)  -->
<svg version="1.1" id="Camada_1" xmlns="http://www.w3.org/2000/svg" xmlns:xlink="http://www.w3.org/1999/xlink" x="0px" y="0px"
	 viewBox="0 0 500 300" style="enable-background:new 0 0 500 300;" xml:space="preserve">
<style type="text/css">
	.st0{fill:#FFFFFF;}
	.st1{fill:#FFFFFF;stroke:#FFFFFF;stroke-width:3;stroke-miterlimit:10;}
</style>
<path class="st0" d="M358.38,203.08c-1.1,0-2.19,0.01-3.29,0.02c0.21-0.21,0.48-0.19,0.74-0.19c0.8,0,1.61-0.01,2.41,0.01h0.13
	C358.38,202.97,358.39,203.03,358.38,203.08z"/>
<path class="st0" d="M332.34,109.17c-0.05,0.11-0.15,0.13-0.26,0.12C332.16,109.23,332.27,109.26,332.34,109.17z"/>
<path class="st0" d="M332.59,109.06c-0.06,0.1-0.15,0.12-0.25,0.11C332.41,109.11,332.52,109.13,332.59,109.06z"/>
<path class="st0" d="M332.95,108.93c-0.06,0.12-0.17,0.12-0.29,0.11C332.76,109,332.87,109.02,332.95,108.93z"/>
<path class="st0" d="M333.32,108.8c-0.08,0.16-0.23,0.13-0.37,0.13c0.01-0.01,0.03-0.03,0.04-0.03
	C333.09,108.85,333.24,108.91,333.32,108.8z"/>
<path class="st0" d="M333.68,108.68c-0.08,0.16-0.23,0.13-0.36,0.12c0.01-0.02,0.02-0.03,0.04-0.03
	C333.46,108.73,333.6,108.79,333.68,108.68z"/>
<path class="st0" d="M334.17,108.56c-0.12,0.19-0.31,0.11-0.48,0.12C333.83,108.56,334.04,108.71,334.17,108.56z"/>
<path class="st0" d="M334.67,108.44c-0.13,0.18-0.32,0.11-0.5,0.12c0.06-0.05,0.12-0.05,0.19-0.05
	C334.47,108.51,334.58,108.53,334.67,108.44z"/>
<path class="st0" d="M335.4,108.32c-0.19,0.21-0.43,0.1-0.65,0.11C334.95,108.32,335.2,108.46,335.4,108.32z"/>
<path class="st0" d="M337.03,169.82h-0.18c-2.9,0.01-5.79,0.03-8.68-0.01h-0.04c-0.02,0-0.03-0.01-0.05-0.01
	c-0.2-0.03-0.45,0.03-0.48-0.29c0.01-0.01,0.01-0.01,0.02-0.01c0.09,0.22,0.29,0.1,0.45,0.14h8.92
	C337,169.7,337.01,169.76,337.03,169.82z"/>
<path class="st0" d="M347.96,169.44c-0.18,0.12-0.37,0.07-0.55,0.07H328.1c-0.15,0-0.32-0.01-0.47-0.02
	c0.31-0.24,0.68-0.16,1.03-0.16c6-0.01,12.01-0.01,18.01-0.01c1.08,0,1.09,0,0.87-1.04c-0.54-2.63-1.1-5.25-1.65-7.88
	c-0.07-0.32-0.14-0.64-0.15-0.96c-0.01-0.19,0.03-0.39-0.03-0.57c-0.01-0.06-0.03-0.12-0.04-0.17c-0.02-0.14-0.04-0.27-0.08-0.4
	c-0.02-0.06-0.03-0.11-0.04-0.16c-0.02-0.15-0.03-0.31-0.09-0.46c-0.01-0.05-0.02-0.1-0.03-0.15c-0.02-0.15-0.04-0.31-0.09-0.46
	c-0.01-0.05-0.03-0.1-0.03-0.15c-0.02-0.15-0.04-0.3-0.09-0.45c-0.01-0.05-0.03-0.1-0.04-0.15c-0.02-0.12-0.04-0.25-0.08-0.37
	c-0.03-0.07-0.04-0.15-0.05-0.23c-0.01-0.12-0.03-0.25-0.08-0.37c-0.01-0.05-0.02-0.1-0.03-0.15c-0.02-0.15-0.04-0.3-0.09-0.45
	c-0.01-0.05-0.03-0.1-0.03-0.15c-0.02-0.16-0.04-0.31-0.09-0.46c-0.02-0.05-0.03-0.1-0.04-0.15c-0.01-0.15-0.03-0.3-0.08-0.45
	c-0.02-0.05-0.03-0.1-0.04-0.15c-0.02-0.13-0.04-0.25-0.09-0.37c-0.02-0.07-0.03-0.15-0.04-0.23c-0.01-0.12-0.04-0.25-0.08-0.37
	c-0.01-0.05-0.02-0.1-0.03-0.15c-0.02-0.15-0.04-0.3-0.09-0.45c-0.02-0.05-0.03-0.1-0.04-0.15c-0.01-0.16-0.03-0.31-0.08-0.46
	c-0.02-0.05-0.03-0.1-0.04-0.15c-0.01-0.15-0.03-0.3-0.08-0.45c-0.01-0.05-0.03-0.09-0.04-0.14c-0.02-0.13-0.04-0.25-0.09-0.37
	c-0.01-0.05-0.02-0.1-0.03-0.15c-0.02-0.16-0.04-0.31-0.09-0.45c-0.01-0.05-0.03-0.1-0.03-0.16c-0.02-0.15-0.04-0.3-0.09-0.45
	c-0.02-0.05-0.03-0.1-0.04-0.15c-0.02-0.16-0.03-0.31-0.08-0.46c-0.02-0.05-0.03-0.1-0.04-0.15c-0.02-0.15-0.03-0.3-0.08-0.45
	c-0.02-0.05-0.03-0.1-0.04-0.15c-0.02-0.12-0.04-0.24-0.09-0.37c-0.01-0.04-0.02-0.09-0.03-0.14c-0.02-0.16-0.04-0.31-0.09-0.46
	c-0.02-0.04-0.03-0.1-0.04-0.15c-0.01-0.15-0.03-0.3-0.08-0.45c-0.02-0.05-0.03-0.1-0.04-0.15c-0.02-0.16-0.03-0.31-0.08-0.46
	c-0.02-0.05-0.03-0.1-0.04-0.15c-0.02-0.15-0.03-0.3-0.08-0.45c-0.02-0.05-0.03-0.1-0.04-0.15c-0.02-0.12-0.05-0.25-0.09-0.37
	c-0.01-0.05-0.03-0.1-0.03-0.15c-0.02-0.15-0.04-0.3-0.09-0.45c-0.02-0.05-0.03-0.1-0.04-0.15c-0.02-0.15-0.03-0.3-0.08-0.45
	c-0.02-0.05-0.03-0.1-0.04-0.15c-0.02-0.15-0.03-0.31-0.08-0.45c-0.02-0.05-0.03-0.1-0.04-0.15c-0.02-0.13-0.05-0.25-0.09-0.37
	c-0.02-0.08-0.04-0.15-0.04-0.23c-0.02-0.13-0.04-0.25-0.08-0.37c-0.02-0.05-0.03-0.1-0.04-0.15c-0.01-0.16-0.03-0.31-0.08-0.46
	c-0.02-0.05-0.03-0.1-0.04-0.15c-0.02-0.15-0.03-0.3-0.08-0.45c-0.02-0.05-0.03-0.1-0.04-0.15c-0.02-0.16-0.03-0.31-0.08-0.46
	c-0.02-0.04-0.03-0.09-0.04-0.15c-0.02-0.12-0.05-0.25-0.09-0.37c-0.02-0.07-0.04-0.15-0.04-0.22c-0.02-0.13-0.04-0.25-0.08-0.37
	c-0.02-0.05-0.03-0.1-0.04-0.15c-0.01-0.16-0.03-0.31-0.08-0.46c-0.02-0.05-0.03-0.1-0.04-0.15c-0.02-0.15-0.03-0.31-0.08-0.45
	c-0.02-0.05-0.03-0.1-0.04-0.15c-0.02-0.16-0.03-0.31-0.08-0.46c-0.02-0.05-0.03-0.1-0.04-0.15c-0.02-0.12-0.05-0.25-0.09-0.37
	c-0.02-0.07-0.04-0.15-0.05-0.22c-0.01-0.13-0.03-0.25-0.07-0.38c-0.02-0.04-0.03-0.09-0.04-0.14c-0.02-0.16-0.03-0.31-0.08-0.45
	c-0.02-0.05-0.03-0.1-0.04-0.16c-0.02-0.12-0.02-0.25-0.05-0.37c-0.01-0.03-0.03-0.07-0.05-0.09c-0.04,0.03-0.05,0.07-0.06,0.11
	c-1.01,2.97-2.13,5.9-3.18,8.84c-0.06,0.15-0.12,0.31-0.3,0.36h-0.01c-0.01,0-0.02-0.01-0.02-0.01v-0.03
	c0.44-0.95,0.75-1.96,1.11-2.95c0.71-1.94,1.42-3.88,2.12-5.82c0.07-0.21,0.19-0.41,0.19-0.64c0.01-0.08,0.02-0.18,0.11-0.18
	c0.15,0,0.12,0.13,0.12,0.22c-0.02,0.03-0.01,0.06,0.02,0.09c0.18,0.14,0.11,0.33,0.11,0.51c-0.02,0.04-0.02,0.07,0.02,0.1
	c0.17,0.14,0.1,0.33,0.1,0.5c-0.01,0.04-0.01,0.08,0.02,0.11c0.15,0.11,0.11,0.27,0.1,0.42c0.01,0.06,0.02,0.13,0.03,0.19
	c0.14,0.11,0.1,0.26,0.09,0.41c-0.02,0.03-0.02,0.05,0.01,0.07c0.19,0.15,0.11,0.35,0.12,0.53c-0.02,0.03-0.02,0.06,0.01,0.09
	c0.18,0.14,0.11,0.33,0.11,0.51c-0.02,0.04-0.01,0.07,0.02,0.1c0.17,0.14,0.1,0.33,0.11,0.5c-0.02,0.04-0.02,0.08,0.01,0.11
	c0.15,0.11,0.11,0.27,0.1,0.42c0.01,0.06,0.02,0.13,0.03,0.19c0.14,0.11,0.1,0.26,0.09,0.41c-0.02,0.03-0.01,0.06,0.02,0.08
	c0.18,0.14,0.11,0.34,0.11,0.52c-0.02,0.03-0.02,0.06,0.01,0.09c0.18,0.14,0.11,0.33,0.11,0.51c-0.02,0.04-0.01,0.07,0.02,0.1
	c0.17,0.14,0.1,0.33,0.11,0.5c-0.02,0.04-0.02,0.08,0.01,0.11c0.15,0.11,0.11,0.27,0.1,0.42c0.01,0.06,0.02,0.13,0.03,0.19
	c0.14,0.11,0.1,0.26,0.09,0.41c-0.02,0.03-0.01,0.06,0.02,0.08c0.18,0.14,0.11,0.34,0.11,0.52c-0.02,0.03-0.02,0.06,0.01,0.09
	c0.18,0.14,0.11,0.33,0.11,0.51c-0.02,0.04-0.01,0.07,0.02,0.1c0.17,0.14,0.1,0.33,0.11,0.5c-0.02,0.04-0.01,0.08,0.02,0.11
	c0.14,0.11,0.1,0.27,0.09,0.42l-0.01,0.04l0.02,0.03c0.19,0.14,0.12,0.34,0.12,0.53c-0.03,0.03-0.02,0.06,0.01,0.08
	c0.18,0.14,0.11,0.34,0.11,0.52c-0.02,0.03-0.01,0.06,0.02,0.09c0.17,0.14,0.1,0.33,0.11,0.51c-0.02,0.04-0.02,0.07,0.01,0.1
	c0.17,0.14,0.1,0.33,0.11,0.5c-0.02,0.04-0.01,0.08,0.02,0.11c0.14,0.12,0.1,0.27,0.09,0.42l-0.01,0.04l0.03,0.03
	c0.18,0.14,0.11,0.34,0.11,0.53c-0.02,0.03-0.02,0.06,0.01,0.08c0.18,0.14,0.11,0.34,0.11,0.52c-0.02,0.03-0.01,0.06,0.02,0.09
	c0.17,0.14,0.1,0.33,0.11,0.51c-0.02,0.04-0.02,0.07,0.01,0.1c0.17,0.14,0.1,0.33,0.11,0.5c-0.02,0.04-0.01,0.08,0.02,0.11
	c0.14,0.12,0.1,0.27,0.09,0.42c-0.02,0.03-0.01,0.05,0.02,0.07c0.18,0.14,0.11,0.34,0.11,0.53c-0.02,0.03-0.02,0.06,0.01,0.08
	c0.18,0.14,0.11,0.34,0.11,0.52c-0.02,0.03-0.01,0.07,0.02,0.09c0.17,0.14,0.1,0.33,0.11,0.51c-0.02,0.04-0.01,0.07,0.02,0.1
	c0.14,0.12,0.1,0.28,0.09,0.43c0.01,0.06,0.02,0.12,0.03,0.19c0.14,0.11,0.11,0.26,0.1,0.41c-0.03,0.03-0.02,0.05,0.01,0.07
	c0.18,0.15,0.11,0.34,0.11,0.53c-0.02,0.03-0.01,0.06,0.02,0.08c0.17,0.14,0.1,0.34,0.11,0.52c-0.02,0.03-0.02,0.07,0.01,0.09
	c0.18,0.14,0.1,0.34,0.11,0.51c-0.02,0.04-0.01,0.07,0.02,0.11c0.14,0.11,0.1,0.27,0.09,0.42c0.01,0.06,0.02,0.12,0.03,0.19
	c0.14,0.11,0.11,0.26,0.1,0.41c-0.02,0.03-0.02,0.05,0.01,0.07c0.19,0.15,0.11,0.34,0.11,0.53c-0.02,0.03-0.01,0.06,0.02,0.08
	c0.18,0.15,0.1,0.34,0.11,0.52c-0.02,0.03-0.02,0.07,0.01,0.1c0.18,0.13,0.11,0.33,0.11,0.5c-0.02,0.04-0.01,0.08,0.02,0.11
	c0.15,0.11,0.1,0.27,0.1,0.42l-0.02,0.03l0.03,0.03c0.19,0.15,0.11,0.35,0.11,0.54c0.1,0.97,0.37,1.91,0.56,2.87
	c0.48,2.35,0.98,4.69,1.46,7.04C347.94,169.29,347.95,169.37,347.96,169.44z"/>
<path class="st0" d="M358.38,203.08c-0.05-0.05-0.09-0.1-0.13-0.16h0.12C358.38,202.97,358.39,203.03,358.38,203.08z"/>
<path class="st0" d="M123.19,203.11c-0.06-0.08-0.04-0.18-0.1-0.25C123.18,202.91,123.2,203.01,123.19,203.11z"/>
<path class="st0" d="M262.31,142.02c-0.11,0.01-0.21-0.02-0.24-0.15C262.11,141.99,262.24,141.96,262.31,142.02z"/>
<path class="st0" d="M262.31,142.03c0.11,0.1,0.23,0.17,0.37,0.23C262.5,142.28,262.37,142.2,262.31,142.03z"/>
<path class="st0" d="M262.68,142.26c0.05,0.1,0.17,0.07,0.23,0.13C262.81,142.39,262.72,142.37,262.68,142.26z"/>
<path class="st0" d="M262.92,142.4c0.12,0.09,0.23,0.17,0.37,0.22C263.11,142.65,262.99,142.57,262.92,142.4z"/>
<path class="st0" d="M263.29,142.62c0.05,0.1,0.17,0.07,0.24,0.14C263.42,142.76,263.33,142.74,263.29,142.62z"/>
<path class="st0" d="M280.75,194.43c-0.11,0.1-0.27,0.14-0.34,0.29C280.44,194.52,280.56,194.44,280.75,194.43z"/>
<polygon class="st0" points="281.53,193.72 281.52,193.73 281.52,193.72 "/>
<path class="st0" d="M377.64,202.46c-0.64-3.04-1.27-6.09-1.91-9.13c-1.24-5.95-2.49-11.89-3.73-17.84
	c-1.25-5.95-2.48-11.9-3.73-17.85c-1.19-5.72-2.39-11.45-3.59-17.18c-1.12-5.37-2.24-10.74-3.37-16.12
	c-1.08-5.17-2.16-10.34-3.24-15.51c-0.14-0.64-0.14-0.64-0.83-0.64h-19.98c-0.38,0-0.77,0.01-1.16,0.02
	c-0.2,0.01-0.41-0.01-0.59,0.1c-0.04-0.02-0.08-0.02-0.11,0.01c-0.19,0.21-0.43,0.1-0.65,0.11c-0.03-0.02-0.06-0.02-0.08,0.01
	c-0.13,0.18-0.32,0.11-0.5,0.12c-0.12,0.19-0.31,0.11-0.48,0.12h-0.01c-0.08,0.16-0.23,0.13-0.36,0.12
	c-0.08,0.16-0.23,0.13-0.37,0.13c-0.06,0.12-0.17,0.12-0.29,0.11c-0.03-0.02-0.06-0.01-0.07,0.02c-0.06,0.1-0.15,0.12-0.25,0.11
	c-0.05,0.11-0.15,0.13-0.26,0.12c-0.27,0.04-0.48,0.2-0.71,0.32c-2.85,1.6-4.53,4.1-5.53,7.13c-0.12,0.12-0.15,0.28-0.22,0.43
	c-1.37,3.27-2.75,6.54-4.11,9.81c-0.27,0.66-0.6,1.29-0.79,1.97h0.01v0.01c0,0.11-0.02,0.19-0.11,0.25l-0.04,0.02l0.01,0.04
	c0.01,0.12,0.01,0.24-0.12,0.3c0.02,0.1,0,0.19-0.11,0.25c0.01,0.1-0.01,0.18-0.1,0.24c-0.04,0.02-0.05,0.04-0.03,0.08
	c0.01,0.11,0,0.22-0.12,0.28c0.01,0.1-0.01,0.19-0.11,0.25v0.01c-0.01,0.12,0.01,0.25-0.1,0.32h-0.01
	c-0.01,0.02-0.02,0.03-0.03,0.03c0.01,0.11,0,0.2-0.11,0.25c0,0.1-0.01,0.19-0.11,0.25c-0.03,0.01-0.04,0.04-0.02,0.07
	c0.01,0.12,0,0.23-0.12,0.29c0.01,0.11-0.01,0.19-0.11,0.25c-0.01,0.12,0.01,0.25-0.09,0.31c-0.01,0.03-0.03,0.04-0.05,0.04v0.01
	c0.01,0.1-0.01,0.19-0.11,0.25c0,0.1-0.02,0.18-0.11,0.24c-0.04,0.02-0.04,0.04-0.03,0.07c0.02,0.12,0.01,0.22-0.11,0.28
	c0.01,0.11-0.01,0.21-0.12,0.26c0.01,0.1-0.01,0.19-0.1,0.25c-0.04,0.01-0.05,0.04-0.03,0.08c0.01,0.11,0,0.22-0.12,0.28
	c0.01,0.11-0.01,0.19-0.11,0.25c0,0.13,0.02,0.26-0.1,0.33c-0.01,0.01-0.02,0.02-0.04,0.03c0.02,0.11,0,0.19-0.11,0.25
	c0.01,0.09-0.01,0.18-0.11,0.24c-0.03,0.02-0.04,0.04-0.02,0.08c0.01,0.12,0,0.23-0.12,0.29c0.01,0.1-0.01,0.19-0.11,0.24v0.01
	c0,0.09-0.02,0.18-0.11,0.24c-0.03,0.02-0.04,0.05-0.03,0.09c0.01,0.11,0,0.21-0.11,0.27c0,0.1-0.01,0.19-0.11,0.25
	c-0.03,0.01-0.04,0.04-0.02,0.07c0.01,0.12,0,0.22-0.12,0.28v0.01c0.01,0.11-0.01,0.19-0.11,0.25c0,0.1-0.02,0.19-0.11,0.24
	c-0.03,0.02-0.04,0.05-0.03,0.09c0.01,0.11,0,0.21-0.11,0.27V138c0,0.1-0.02,0.19-0.11,0.24l-0.03,0.03v0.04
	c0.01,0.09,0.02,0.17,0.02,0.26v0.04c-0.05,0-0.08-0.01-0.13-0.01c0.01,0.1-0.01,0.2-0.12,0.25c0.01,0.1-0.01,0.19-0.1,0.25
	c-0.04,0.02-0.05,0.04-0.03,0.08c0.01,0.11,0,0.22-0.12,0.28c0.01,0.1-0.01,0.19-0.11,0.25v0.01c-0.01,0.12,0.01,0.25-0.1,0.32
	c-0.01,0.02-0.03,0.02-0.04,0.03c0.02,0.11,0,0.19-0.11,0.25c0,0.1-0.01,0.19-0.11,0.24c-0.03,0.02-0.04,0.04-0.02,0.08
	c0.01,0.12,0,0.23-0.12,0.29c0.01,0.1-0.01,0.19-0.11,0.25c-0.01,0.12,0.01,0.25-0.09,0.31c-0.01,0.02-0.03,0.03-0.05,0.03
	c0.01,0.11,0,0.21-0.11,0.26c0,0.1-0.01,0.19-0.11,0.25c-0.03,0.01-0.04,0.04-0.03,0.07c0.02,0.12,0.01,0.22-0.11,0.28v0.01
	c0.01,0.11-0.01,0.19-0.11,0.25c0,0.1-0.02,0.19-0.11,0.24c-0.04,0.02-0.04,0.05-0.03,0.09c0.01,0.11,0,0.22-0.12,0.28
	c-0.14,0.13-0.17,0.32-0.24,0.48c-0.84,2-1.69,3.99-2.51,6c-0.39,0.93-0.83,1.84-1.14,2.81c-0.14,0.15-0.19,0.35-0.27,0.54
	c-1.99,4.76-3.99,9.52-5.98,14.28c-0.57,1.36-1.19,2.71-1.69,4.1c-0.08,0.17-0.17,0.33-0.24,0.49c-2.25,5.36-4.5,10.72-6.74,16.09
	c-0.26,0.61-0.57,1.21-0.74,1.86c0,0.1-0.01,0.19-0.11,0.25l-0.03,0.03v0.04c0.02,0.12,0.01,0.23-0.12,0.29
	c-0.05,0.09-0.11,0.17-0.15,0.26c-1.66,3.96-3.32,7.92-4.97,11.87c-0.06,0.15-0.18,0.28-0.11,0.46c0.22-0.2,0.48-0.19,0.75-0.19
	c3.16,0,6.32-0.02,9.48,0h0.16c-0.01,0.06-0.01,0.11-0.01,0.17c-1.42,0-2.85,0.01-4.27,0.02h-6.11c0.17,0.17,0.39,0.08,0.58,0.08
	c8.16,0.01,16.32,0.01,24.49,0c0.73,0,0.59,0.07,0.84-0.61c1.56-4.31,3.12-8.63,4.69-12.94c0.26-0.73,0.09-0.63,0.94-0.65
	c0.93-0.01,1.87,0.05,2.8-0.03c0.16,0.01,0.32,0.03,0.48,0.03c3.27,0.01,6.53,0,9.8,0c0.16,0,0.32-0.02,0.48-0.03
	c0.14,0.01,0.28,0.03,0.42,0.03h8.08c0.14,0,0.28-0.02,0.42-0.03c0.22,0.07,0.45,0.03,0.67,0.03c2.38,0.01,4.76,0,7.14,0
	c0.53,0.01,0.53,0.01,0.64,0.5c0.93,4.44,1.86,8.87,2.8,13.3c0.02,0.11,0.01,0.25,0.13,0.32c0.21-0.21,0.48-0.19,0.74-0.19
	c0.8,0,1.61-0.01,2.41,0.01h0.13c0.01,0.05,0.02,0.11,0.01,0.16c-1.1,0-2.19,0.01-3.29,0.02c0.17,0.17,0.39,0.08,0.58,0.08
	c7.15,0.01,14.3,0.01,21.45,0c0.19,0,0.4,0.06,0.63-0.08C377.71,202.9,377.68,202.68,377.64,202.46z M347.41,169.51H328.1
	c-0.15,0-0.32-0.01-0.47-0.02l-0.01,0.01c0.09,0.22,0.29,0.1,0.45,0.14h8.92c0.01,0.06,0.02,0.12,0.04,0.18h-0.18
	c-2.9,0.01-5.79,0.03-8.68-0.01h-0.04c-0.02,0-0.03-0.01-0.05-0.01c-0.2-0.03-0.45,0.03-0.48-0.29c0.01-0.01,0.01-0.01,0.02-0.01
	l-0.01-0.01c-0.01-0.01-0.03-0.01-0.04-0.02c-0.02,0-0.03-0.01-0.04-0.02c0.01-0.01,0.02-0.01,0.04-0.03c0,0,0.01-0.01,0.02-0.01
	v-0.02c-0.01-0.1,0.01-0.18,0.1-0.24c0.03-0.02,0.04-0.05,0.02-0.09c-0.01-0.11,0-0.21,0.11-0.28c0.03-0.02,0.04-0.04,0.02-0.08
	c0.02-0.03,0.03-0.06,0.05-0.09c0.15-0.28,0.26-0.57,0.31-0.89c-0.01-0.11,0-0.22,0.11-0.28c0.03-0.02,0.04-0.04,0.02-0.07
	c-0.01-0.12-0.01-0.23,0.11-0.3c0-0.13-0.03-0.27,0.12-0.36c0-0.1,0.01-0.19,0.11-0.25c0.03-0.02,0.04-0.05,0.02-0.09
	c-0.01-0.11,0-0.21,0.11-0.28c0.03-0.01,0.04-0.04,0.02-0.07c-0.02-0.11-0.01-0.21,0.1-0.29c0.01-0.13-0.01-0.26,0.1-0.33
	c0.01-0.02,0.02-0.03,0.03-0.03c0-0.1,0.01-0.19,0.1-0.25c0.04-0.03,0.05-0.06,0.03-0.09c-0.01-0.11,0-0.22,0.1-0.28
	c0.04-0.02,0.04-0.04,0.03-0.07c-0.02-0.12-0.01-0.23,0.1-0.3c0.01-0.12-0.01-0.25,0.09-0.32c0.01-0.02,0.03-0.03,0.04-0.03v-0.01
	c0-0.13-0.02-0.28,0.13-0.35v-0.01c-0.01-0.11,0-0.19,0.1-0.25c0.03-0.02,0.04-0.05,0.02-0.08c-0.01-0.11,0-0.22,0.11-0.29
	c0-0.14-0.02-0.28,0.13-0.36c0-0.14-0.03-0.29,0.13-0.37c-0.01-0.1,0-0.19,0.1-0.25c0.03-0.02,0.04-0.04,0.02-0.08
	c-0.01-0.11,0-0.22,0.11-0.28v-0.01c0-0.13-0.02-0.28,0.13-0.36c0-0.14-0.03-0.28,0.13-0.36c-0.01-0.11,0-0.19,0.1-0.25
	c0.03-0.02,0.04-0.05,0.02-0.08c-0.01-0.11,0-0.22,0.11-0.29c0-0.13-0.02-0.28,0.13-0.36c-0.01-0.14-0.04-0.28,0.12-0.36v-0.01
	c-0.01-0.1,0.01-0.18,0.11-0.24c0.03-0.02,0.04-0.05,0.02-0.09c-0.01-0.11-0.01-0.21,0.11-0.28l0.03-0.03l-0.02-0.03
	c-0.01-0.12-0.01-0.23,0.11-0.3c0-0.14-0.03-0.28,0.13-0.36v-0.01h0.01c0.44-0.98,0.76-1.99,1.12-3c1.37-3.73,2.72-7.46,4.07-11.2
	c0.07-0.17,0.17-0.34,0.17-0.55v-0.03c0.44-0.95,0.75-1.96,1.11-2.95c0.71-1.94,1.42-3.88,2.12-5.82c0.07-0.21,0.19-0.41,0.19-0.64
	c0.01-0.08,0.02-0.18,0.11-0.18c0.15,0,0.12,0.13,0.12,0.22c-0.02,0.03-0.01,0.06,0.02,0.09c0.18,0.14,0.11,0.33,0.11,0.51
	c-0.02,0.04-0.02,0.07,0.02,0.1c0.17,0.14,0.1,0.33,0.1,0.5c-0.01,0.04-0.01,0.08,0.02,0.11c0.15,0.11,0.11,0.27,0.1,0.42
	c0.01,0.06,0.02,0.13,0.03,0.19c0.14,0.11,0.1,0.26,0.09,0.41c-0.02,0.03-0.02,0.05,0.01,0.07c0.19,0.15,0.11,0.35,0.12,0.53
	c-0.02,0.03-0.02,0.06,0.01,0.09c0.18,0.14,0.11,0.33,0.11,0.51c-0.02,0.04-0.01,0.07,0.02,0.1c0.17,0.14,0.1,0.33,0.11,0.5
	c-0.02,0.04-0.02,0.08,0.01,0.11c0.15,0.11,0.11,0.27,0.1,0.42c0.01,0.06,0.02,0.13,0.03,0.19c0.14,0.11,0.1,0.26,0.09,0.41
	c-0.02,0.03-0.01,0.06,0.02,0.08c0.18,0.14,0.11,0.34,0.11,0.52c-0.02,0.03-0.02,0.06,0.01,0.09c0.18,0.14,0.11,0.33,0.11,0.51
	c-0.02,0.04-0.01,0.07,0.02,0.1c0.17,0.14,0.1,0.33,0.11,0.5c-0.02,0.04-0.02,0.08,0.01,0.11c0.15,0.11,0.11,0.27,0.1,0.42
	c0.01,0.06,0.02,0.13,0.03,0.19c0.14,0.11,0.1,0.26,0.09,0.41c-0.02,0.03-0.01,0.06,0.02,0.08c0.18,0.14,0.11,0.34,0.11,0.52
	c-0.02,0.03-0.02,0.06,0.01,0.09c0.18,0.14,0.11,0.33,0.11,0.51c-0.02,0.04-0.01,0.07,0.02,0.1c0.17,0.14,0.1,0.33,0.11,0.5
	c-0.02,0.04-0.01,0.08,0.02,0.11c0.14,0.11,0.1,0.27,0.09,0.42l-0.01,0.04l0.02,0.03c0.19,0.14,0.12,0.34,0.12,0.53
	c-0.03,0.03-0.02,0.06,0.01,0.08c0.18,0.14,0.11,0.34,0.11,0.52c-0.02,0.03-0.01,0.06,0.02,0.09c0.17,0.14,0.1,0.33,0.11,0.51
	c-0.02,0.04-0.02,0.07,0.01,0.1c0.17,0.14,0.1,0.33,0.11,0.5c-0.02,0.04-0.01,0.08,0.02,0.11c0.14,0.12,0.1,0.27,0.09,0.42
	l-0.01,0.04l0.03,0.03c0.18,0.14,0.11,0.34,0.11,0.53c-0.02,0.03-0.02,0.06,0.01,0.08c0.18,0.14,0.11,0.34,0.11,0.52
	c-0.02,0.03-0.01,0.06,0.02,0.09c0.17,0.14,0.1,0.33,0.11,0.51c-0.02,0.04-0.02,0.07,0.01,0.1c0.17,0.14,0.1,0.33,0.11,0.5
	c-0.02,0.04-0.01,0.08,0.02,0.11c0.14,0.12,0.1,0.27,0.09,0.42c-0.02,0.03-0.01,0.05,0.02,0.07c0.18,0.14,0.11,0.34,0.11,0.53
	c-0.02,0.03-0.02,0.06,0.01,0.08c0.18,0.14,0.11,0.34,0.11,0.52c-0.02,0.03-0.01,0.07,0.02,0.09c0.17,0.14,0.1,0.33,0.11,0.51
	c-0.02,0.04-0.01,0.07,0.02,0.1c0.14,0.12,0.1,0.28,0.09,0.43c0.01,0.06,0.02,0.12,0.03,0.19c0.14,0.11,0.11,0.26,0.1,0.41
	c-0.03,0.03-0.02,0.05,0.01,0.07c0.18,0.15,0.11,0.34,0.11,0.53c-0.02,0.03-0.01,0.06,0.02,0.08c0.17,0.14,0.1,0.34,0.11,0.52
	c-0.02,0.03-0.02,0.07,0.01,0.09c0.18,0.14,0.1,0.34,0.11,0.51c-0.02,0.04-0.01,0.07,0.02,0.11c0.14,0.11,0.1,0.27,0.09,0.42
	c0.01,0.06,0.02,0.12,0.03,0.19c0.14,0.11,0.11,0.26,0.1,0.41c-0.02,0.03-0.02,0.05,0.01,0.07c0.19,0.15,0.11,0.34,0.11,0.53
	c-0.02,0.03-0.01,0.06,0.02,0.08c0.18,0.15,0.1,0.34,0.11,0.52c-0.02,0.03-0.02,0.07,0.01,0.1c0.18,0.13,0.11,0.33,0.11,0.5
	c-0.02,0.04-0.01,0.08,0.02,0.11c0.15,0.11,0.1,0.27,0.1,0.42l-0.02,0.03l0.03,0.03c0.19,0.15,0.11,0.35,0.11,0.54
	c0.1,0.97,0.37,1.91,0.56,2.87c0.48,2.35,0.98,4.69,1.46,7.04c0.02,0.08,0.03,0.16,0.04,0.23
	C347.78,169.56,347.59,169.51,347.41,169.51z"/>
<path class="st0" d="M300.08,202.91c-0.01,0.06-0.01,0.11-0.01,0.17c-1.42,0-2.85,0.01-4.27,0.02h-6.11
	c0.22-0.2,0.48-0.19,0.75-0.19c3.16,0,6.32-0.02,9.48,0H300.08z"/>
<path class="st0" d="M314.85,142.97c0.01,0.11,0,0.22-0.12,0.28C314.83,143.18,314.81,143.06,314.85,142.97z"/>
<path class="st0" d="M314.99,142.64c0,0.1-0.02,0.19-0.11,0.24C314.94,142.81,314.92,142.71,314.99,142.64z"/>
<path class="st0" d="M315.1,142.39c0.01,0.11-0.01,0.19-0.11,0.25C315.06,142.57,315.05,142.47,315.1,142.39
	C315.09,142.38,315.1,142.39,315.1,142.39z"/>
<path class="st0" d="M315.21,142.1c0.02,0.12,0.01,0.22-0.11,0.28C315.2,142.31,315.18,142.2,315.21,142.1z"/>
<path class="st0" d="M315.35,141.78c0,0.1-0.01,0.19-0.11,0.25C315.31,141.96,315.29,141.85,315.35,141.78z"/>
<path class="st0" d="M315.46,141.52c0.01,0.11,0,0.21-0.11,0.26C315.43,141.72,315.42,141.61,315.46,141.52z"/>
<path class="st0" d="M315.6,141.18c-0.01,0.12,0.01,0.25-0.09,0.31c0.06-0.07,0.02-0.19,0.06-0.27
	C315.58,141.2,315.59,141.19,315.6,141.18z"/>
<path class="st0" d="M315.71,140.93c0.01,0.1-0.01,0.19-0.11,0.25C315.67,141.11,315.66,141.01,315.71,140.93z"/>
<path class="st0" d="M315.83,140.64c0.01,0.12,0,0.23-0.12,0.29C315.81,140.86,315.79,140.74,315.83,140.64z"/>
<path class="st0" d="M315.96,140.32c0,0.1-0.01,0.19-0.11,0.24C315.92,140.49,315.9,140.39,315.96,140.32z"/>
<path class="st0" d="M316.07,140.07c0.02,0.11,0,0.19-0.11,0.25C316.04,140.25,316.03,140.15,316.07,140.07z"/>
<path class="st0" d="M316.21,139.72c-0.01,0.12,0.01,0.25-0.1,0.32c0.07-0.08,0.02-0.2,0.07-0.28
	C316.19,139.74,316.2,139.73,316.21,139.72z"/>
<path class="st0" d="M316.32,139.46c0.01,0.1-0.01,0.19-0.11,0.25C316.28,139.64,316.27,139.53,316.32,139.46z"/>
<path class="st0" d="M316.44,139.18c0.01,0.11,0,0.22-0.12,0.28C316.42,139.39,316.4,139.27,316.44,139.18z"/>
<path class="st0" d="M316.57,138.85c0.01,0.1-0.01,0.19-0.1,0.25C316.53,139.03,316.51,138.92,316.57,138.85z"/>
<path class="st0" d="M316.69,138.6c0.01,0.1-0.01,0.2-0.12,0.25C316.65,138.79,316.64,138.68,316.69,138.6z"/>
<path class="st0" d="M316.82,138.57v0.04c-0.05,0-0.08-0.01-0.13-0.01c0.04-0.02,0.06-0.03,0.1-0.03h0.01
	C316.81,138.57,316.81,138.57,316.82,138.57z"/>
<path class="st0" d="M327.61,169.49c-0.01-0.01-0.03-0.01-0.04-0.02c-0.02,0-0.03-0.01-0.04-0.02c0.01-0.01,0.02-0.01,0.04-0.03
	c0,0,0.01-0.01,0.02-0.01l-0.01,0.03L327.61,169.49z"/>
<path class="st0" d="M327.9,168.66v0.01c0,0.11-0.03,0.2-0.06,0.3c-0.02,0.05-0.03,0.1-0.05,0.14c-0.02,0.06-0.05,0.12-0.09,0.18
	c-0.01,0.03-0.04,0.06-0.06,0.09l-0.02,0.01h-0.03c-0.01-0.1,0.01-0.18,0.1-0.24c0.03-0.02,0.04-0.05,0.02-0.09
	c-0.01-0.11,0-0.21,0.11-0.28c0.03-0.02,0.04-0.04,0.02-0.08c0.02-0.03,0.03-0.06,0.05-0.09
	C327.89,168.62,327.9,168.64,327.9,168.66z"/>
<path class="st0" d="M328.17,169.81h-0.04c-0.02,0-0.03-0.01-0.05-0.01c-0.2-0.03-0.45,0.03-0.48-0.29
	c0.01-0.01,0.01-0.01,0.02-0.01c0.09,0.22,0.29,0.1,0.45,0.14C328.1,169.7,328.14,169.75,328.17,169.81z"/>
<path class="st0" d="M193.97,134.34c0.14-0.16,0.01-0.36,0.11-0.52C194.08,134,194.16,134.2,193.97,134.34z"/>
<path class="st0" d="M149.59,142.51c0.01,0.1-0.01,0.19-0.1,0.25C149.55,142.69,149.54,142.59,149.59,142.51z"/>
<path class="st0" d="M300.08,202.91c-0.01,0.06-0.01,0.11-0.01,0.17c-0.03-0.06-0.05-0.11-0.07-0.17H300.08z"/>
<path class="st0" d="M193.24,202.91c0.01,0.06,0.01,0.11,0,0.17c-0.03-0.06-0.06-0.11-0.08-0.17H193.24z"/>
<path class="st0" d="M320.73,128.95L320.73,128.95c-0.01,0.01-0.01,0-0.01,0H320.73z"/>
<path class="st0" d="M336.9,144.31c-1.09,3.04-2.19,6.09-3.3,9.12c-0.52,1.43-1.02,2.87-1.57,4.3c-0.08,0.21-0.1,0.49-0.4,0.56
	h-0.01v-0.01h0.01c0.44-0.98,0.76-1.99,1.12-3c1.37-3.73,2.72-7.46,4.07-11.2c0.07-0.17,0.17-0.34,0.17-0.55v-0.03
	c0.01,0.01,0.02,0.03,0.02,0.04C337.16,143.82,336.99,144.07,336.9,144.31z"/>
<path class="st0" d="M193.24,202.91c0.01,0.06,0.01,0.11,0,0.17c-0.03-0.06-0.06-0.11-0.08-0.17H193.24z"/>
<path class="st0" d="M256.43,165.74h-0.01c-0.06-0.1-0.17-0.07-0.24-0.13C256.29,165.61,256.38,165.63,256.43,165.74z"/>
<path class="st0" d="M256.67,165.87c-0.05-0.11-0.16-0.08-0.24-0.13C256.54,165.73,256.63,165.75,256.67,165.87z"/>
<polygon class="st0" points="281.53,193.72 281.52,193.73 281.52,193.72 "/>
<path class="st0" d="M316.82,138.57v0.04c-0.01-0.01-0.02-0.02-0.02-0.04h-0.01c-0.04-0.08-0.01-0.17,0.01-0.26
	C316.81,138.4,316.82,138.48,316.82,138.57z"/>
<path class="st0" d="M316.94,138c0,0.1-0.02,0.19-0.11,0.24c0.07-0.06,0.05-0.16,0.1-0.24C316.93,137.99,316.94,138,316.94,138z"/>
<path class="st0" d="M317.05,137.72c0.01,0.11,0,0.21-0.11,0.27C317.03,137.92,317.01,137.81,317.05,137.72z"/>
<path class="st0" d="M317.19,137.39c0,0.1-0.02,0.19-0.11,0.24C317.14,137.56,317.12,137.46,317.19,137.39z"/>
<path class="st0" d="M317.3,137.14c0.01,0.11-0.01,0.19-0.11,0.25c0.07-0.07,0.06-0.17,0.1-0.25
	C317.29,137.13,317.3,137.14,317.3,137.14z"/>
<path class="st0" d="M317.42,136.85c0.01,0.12,0,0.22-0.12,0.28C317.4,137.06,317.38,136.95,317.42,136.85z"/>
<path class="st0" d="M317.55,136.53c0,0.1-0.01,0.19-0.11,0.25C317.51,136.71,317.49,136.6,317.55,136.53z"/>
<path class="st0" d="M317.66,136.26c0.01,0.11,0,0.21-0.11,0.27C317.64,136.46,317.62,136.34,317.66,136.26z"/>
<path class="st0" d="M317.8,135.93c0,0.09-0.02,0.18-0.11,0.24c0.05-0.05,0.05-0.13,0.07-0.19
	C317.76,135.96,317.78,135.94,317.8,135.93z"/>
<path class="st0" d="M317.91,135.68c0.01,0.1-0.01,0.19-0.11,0.24C317.87,135.85,317.86,135.76,317.91,135.68z"/>
<path class="st0" d="M318.03,135.39c0.01,0.12,0,0.23-0.12,0.29v-0.01C318.01,135.59,317.99,135.48,318.03,135.39z"/>
<path class="st0" d="M318.16,135.07c0.01,0.09-0.01,0.18-0.11,0.24C318.12,135.24,318.1,135.14,318.16,135.07z"/>
<path class="st0" d="M318.27,134.82c0.02,0.11,0,0.19-0.11,0.25C318.24,135,318.23,134.9,318.27,134.82z"/>
<path class="st0" d="M318.41,134.46c0,0.13,0.02,0.26-0.1,0.33c0.07-0.08,0.02-0.2,0.07-0.29
	C318.38,134.49,318.4,134.47,318.41,134.46z"/>
<path class="st0" d="M318.52,134.21c0.01,0.11-0.01,0.19-0.11,0.25C318.48,134.39,318.47,134.29,318.52,134.21z"/>
<path class="st0" d="M318.64,133.93c0.01,0.11,0,0.22-0.12,0.28C318.62,134.14,318.6,134.02,318.64,133.93z"/>
<path class="st0" d="M318.77,133.6c0.01,0.1-0.01,0.19-0.1,0.25C318.73,133.78,318.71,133.67,318.77,133.6z"/>
<path class="st0" d="M318.89,133.34c0.01,0.11-0.01,0.21-0.12,0.26c0.08-0.07,0.07-0.16,0.11-0.25L318.89,133.34z"/>
<path class="st0" d="M319,133.06c0.02,0.12,0.01,0.22-0.11,0.28C318.99,133.27,318.97,133.16,319,133.06z"/>
<path class="st0" d="M319.14,132.75c0,0.1-0.02,0.18-0.11,0.24C319.1,132.92,319.08,132.82,319.14,132.75z"/>
<path class="st0" d="M319.25,132.49v0.01c0.01,0.1-0.01,0.19-0.11,0.25v-0.01c0.07-0.06,0.07-0.16,0.1-0.24v-0.01
	C319.24,132.48,319.25,132.49,319.25,132.49z"/>
<path class="st0" d="M319.39,132.14c-0.01,0.12,0.01,0.25-0.09,0.31c0.06-0.08,0.02-0.19,0.06-0.27
	C319.37,132.16,319.38,132.15,319.39,132.14z"/>
<path class="st0" d="M319.5,131.89c0.01,0.11-0.01,0.19-0.11,0.25C319.46,132.07,319.45,131.97,319.5,131.89z"/>
<path class="st0" d="M319.62,131.6c0.01,0.12,0,0.23-0.12,0.29C319.6,131.82,319.58,131.7,319.62,131.6z"/>
<path class="st0" d="M319.75,131.28c0,0.1-0.01,0.19-0.11,0.25C319.71,131.46,319.69,131.35,319.75,131.28z"/>
<path class="st0" d="M319.86,131.03c0.01,0.11,0,0.2-0.11,0.25C319.83,131.21,319.82,131.11,319.86,131.03z"/>
<path class="st0" d="M319.89,131c-0.01,0.02-0.02,0.03-0.03,0.03v-0.01C319.87,131.02,319.88,131.01,319.89,131z"/>
<path class="st0" d="M320,130.68c-0.01,0.12,0.01,0.25-0.1,0.32c0.06-0.08,0.02-0.2,0.07-0.28
	C319.98,130.7,319.99,130.69,320,130.68z"/>
<path class="st0" d="M320.11,130.42c0.01,0.1-0.01,0.19-0.11,0.25C320.07,130.6,320.06,130.49,320.11,130.42z"/>
<path class="st0" d="M320.23,130.14c0.01,0.11,0,0.22-0.12,0.28C320.21,130.35,320.19,130.23,320.23,130.14z"/>
<path class="st0" d="M320.36,129.82c0.01,0.1-0.01,0.18-0.1,0.24C320.32,129.99,320.3,129.89,320.36,129.82z"/>
<path class="st0" d="M320.47,129.57c0.02,0.1,0,0.19-0.11,0.25v-0.01C320.44,129.74,320.43,129.65,320.47,129.57z"/>
<path class="st0" d="M320.59,129.27c0.01,0.12,0.01,0.24-0.12,0.3C320.58,129.5,320.56,129.37,320.59,129.27z"/>
<path class="st0" d="M320.73,128.96c0,0.11-0.02,0.19-0.11,0.25C320.69,129.14,320.67,129.04,320.73,128.96z"/>
<path class="st0" d="M331.63,158.33c0,0.03-0.01,0.05-0.01,0.07c0,0.05-0.01,0.1-0.03,0.16c-0.01,0.05-0.03,0.09-0.05,0.13
	c-0.02,0.07-0.04,0.13-0.06,0.2c-0.01,0.04-0.03,0.08-0.04,0.13c-0.04,0.08-0.07,0.16-0.09,0.25c-0.01,0.04-0.02,0.08-0.04,0.13
	c-0.03,0.06-0.06,0.12-0.09,0.18c-0.02,0.04-0.04,0.09-0.06,0.13c-0.01,0.03-0.02,0.07-0.04,0.11c0,0.03-0.01,0.05-0.02,0.08
	c-0.01,0.05-0.03,0.09-0.05,0.13c-0.03,0.08-0.06,0.17-0.08,0.26c-0.01,0.04-0.03,0.08-0.04,0.12c-0.02,0.07-0.04,0.13-0.06,0.19
	c-0.01,0.05-0.03,0.09-0.04,0.13c-0.03,0.07-0.06,0.13-0.09,0.19c-0.02,0.04-0.04,0.08-0.06,0.13c-0.03,0.06-0.05,0.13-0.07,0.2
	c-0.01,0.04-0.03,0.08-0.05,0.13c-0.03,0.08-0.06,0.16-0.08,0.25c-0.01,0.04-0.03,0.09-0.04,0.13c-0.02,0.06-0.04,0.12-0.06,0.19
	c-0.01,0.04-0.03,0.08-0.04,0.12c-0.03,0.07-0.06,0.13-0.09,0.19c-0.02,0.05-0.04,0.09-0.06,0.13c-0.03,0.07-0.05,0.13-0.07,0.2
	c-0.01,0.04-0.03,0.09-0.05,0.13c-0.03,0.08-0.05,0.17-0.08,0.26c-0.01,0.04-0.02,0.08-0.04,0.12c-0.02,0.06-0.04,0.13-0.06,0.19
	c-0.01,0.05-0.03,0.09-0.04,0.13c-0.03,0.07-0.06,0.13-0.09,0.19c-0.02,0.04-0.04,0.08-0.06,0.12c-0.01,0.05-0.03,0.09-0.05,0.13
	c0,0.02-0.01,0.05-0.02,0.07c-0.01,0.04-0.03,0.09-0.04,0.13c-0.04,0.08-0.06,0.17-0.09,0.25c-0.01,0.05-0.02,0.09-0.04,0.13
	c-0.02,0.06-0.04,0.13-0.06,0.19c-0.01,0.04-0.03,0.09-0.04,0.13c-0.04,0.08-0.07,0.16-0.09,0.25c-0.01,0.04-0.02,0.09-0.04,0.13
	c-0.02,0.06-0.05,0.12-0.09,0.18c-0.01,0.05-0.03,0.09-0.05,0.13c-0.03,0.06-0.05,0.13-0.07,0.19c-0.01,0.05-0.03,0.09-0.04,0.13
	c-0.03,0.07-0.05,0.13-0.07,0.2c-0.01,0.04-0.02,0.09-0.04,0.13c-0.04,0.08-0.07,0.17-0.09,0.25c-0.01,0.05-0.02,0.09-0.04,0.13
	c-0.02,0.06-0.05,0.12-0.08,0.19c-0.02,0.04-0.04,0.08-0.06,0.12c-0.01,0.04-0.03,0.08-0.05,0.12c0,0.02-0.01,0.04-0.02,0.07
	c-0.01,0.04-0.03,0.08-0.04,0.13c-0.04,0.08-0.06,0.17-0.08,0.26c-0.01,0.05-0.03,0.09-0.04,0.14c-0.03,0.1-0.04,0.21-0.05,0.31
	c-0.09,0.31-0.07,0.68-0.42,0.85c-0.02,0.01-0.04,0.02-0.06,0.03c0.02-0.03,0.03-0.06,0.05-0.09c0.15-0.28,0.26-0.57,0.31-0.89
	c-0.01-0.11,0-0.22,0.11-0.28c0.03-0.02,0.04-0.04,0.02-0.07c-0.01-0.12-0.01-0.23,0.11-0.3c0-0.13-0.03-0.27,0.12-0.36
	c0-0.1,0.01-0.19,0.11-0.25c0.03-0.02,0.04-0.05,0.02-0.09c-0.01-0.11,0-0.21,0.11-0.28c0.03-0.01,0.04-0.04,0.02-0.07
	c-0.02-0.11-0.01-0.21,0.1-0.29c0.01-0.13-0.01-0.26,0.1-0.33c0.01-0.02,0.02-0.03,0.03-0.03c0-0.1,0.01-0.19,0.1-0.25
	c0.04-0.03,0.05-0.06,0.03-0.09c-0.01-0.11,0-0.22,0.1-0.28c0.04-0.02,0.04-0.04,0.03-0.07c-0.02-0.12-0.01-0.23,0.1-0.3
	c0.01-0.12-0.01-0.25,0.09-0.32c0.01-0.02,0.03-0.03,0.04-0.03v-0.01c0-0.13-0.02-0.28,0.13-0.35v-0.01c-0.01-0.11,0-0.19,0.1-0.25
	c0.03-0.02,0.04-0.05,0.02-0.08c-0.01-0.11,0-0.22,0.11-0.29c0-0.14-0.02-0.28,0.13-0.36c0-0.14-0.03-0.29,0.13-0.37
	c-0.01-0.1,0-0.19,0.1-0.25c0.03-0.02,0.04-0.04,0.02-0.08c-0.01-0.11,0-0.22,0.11-0.28v-0.01c0-0.13-0.02-0.28,0.13-0.36
	c0-0.14-0.03-0.28,0.13-0.36c-0.01-0.11,0-0.19,0.1-0.25c0.03-0.02,0.04-0.05,0.02-0.08c-0.01-0.11,0-0.22,0.11-0.29
	c0-0.13-0.02-0.28,0.13-0.36c-0.01-0.14-0.04-0.28,0.12-0.36v-0.01c-0.01-0.1,0.01-0.18,0.11-0.24c0.03-0.02,0.04-0.05,0.02-0.09
	c-0.01-0.11-0.01-0.21,0.11-0.28l0.03-0.03l-0.02-0.03c-0.01-0.12-0.01-0.23,0.11-0.3c0-0.14-0.03-0.28,0.13-0.36
	C331.63,158.3,331.63,158.31,331.63,158.33z"/>
<path class="st0" d="M337.03,169.82h-0.12c0.01-0.06,0.04-0.12,0.08-0.18C337,169.7,337.01,169.76,337.03,169.82z"/>
<path class="st0" d="M358.38,203.08c-1.1,0-2.19,0.01-3.29,0.02c0.21-0.21,0.48-0.19,0.74-0.19c0.8,0,1.61-0.01,2.41,0.01h0.13
	C358.38,202.97,358.39,203.03,358.38,203.08z"/>
<path class="st0" d="M337.03,169.82h-0.18c-2.9,0.01-5.79,0.03-8.68-0.01h-0.04c-0.02,0-0.03-0.01-0.05-0.01
	c-0.01-0.05-0.01-0.11-0.01-0.16h8.92C337,169.7,337.01,169.76,337.03,169.82z"/>
<path class="st0" d="M182.98,185.63c0.09-0.13,0.04-0.29,0.1-0.42C183.09,185.36,183.13,185.52,182.98,185.63z"/>
<path class="st0" d="M183.11,185.02c0.08-0.12,0.02-0.28,0.09-0.4C183.21,184.76,183.25,184.91,183.11,185.02z"/>
<path class="st0" d="M183.22,184.53c0.13-0.15,0-0.35,0.11-0.51C183.32,184.2,183.4,184.39,183.22,184.53z"/>
<path class="st0" d="M183.35,183.92c0.09-0.13,0.03-0.29,0.1-0.42C183.45,183.65,183.5,183.81,183.35,183.92z"/>
<path class="st0" d="M183.46,183.44c0.14-0.16,0.01-0.37,0.11-0.53C183.57,183.09,183.65,183.29,183.46,183.44z"/>
<path class="st0" d="M183.59,182.82c0.12-0.15,0-0.35,0.11-0.51C183.69,182.49,183.76,182.68,183.59,182.82z"/>
<path class="st0" d="M183.71,182.21c0.1-0.13,0.04-0.29,0.1-0.42C183.82,181.94,183.86,182.1,183.71,182.21z"/>
<path class="st0" d="M183.82,181.73c0.14-0.16,0.02-0.37,0.12-0.53C183.93,181.38,184.01,181.58,183.82,181.73z"/>
<path class="st0" d="M183.95,181.11c0.13-0.15,0-0.35,0.11-0.51C184.06,180.78,184.13,180.97,183.95,181.11z"/>
<path class="st0" d="M184.08,180.5c0.09-0.13,0.04-0.29,0.1-0.42C184.19,180.23,184.23,180.39,184.08,180.5z"/>
<path class="st0" d="M184.19,180.02c0.14-0.16,0.01-0.37,0.11-0.53C184.3,179.67,184.38,179.87,184.19,180.02z"/>
<path class="st0" d="M184.32,179.4c0.13-0.15,0-0.35,0.11-0.51C184.42,179.07,184.5,179.26,184.32,179.4z"/>
<path class="st0" d="M193.24,202.91c0.01,0.06,0.01,0.11,0,0.17c-0.03-0.06-0.06-0.11-0.08-0.17H193.24z"/>
<path class="st0" d="M245.1,204.46c-0.14,0.04-0.38,0.04-0.75,0.04c-0.11,0-0.22,0.01-0.33,0.01c-0.01,0-0.01,0-0.01,0
	c-0.11-0.01-0.22-0.03-0.33-0.05H245.1z"/>
<path class="st0" d="M275.71,106.55c0.11,0.01,0.22,0.03,0.33,0.05c-0.8,0-1.61,0.01-2.41,0.01c-0.16,0-0.33,0.03-0.45-0.12
	c0.72,0.14,1.43,0.03,2.15,0.06c0.12,0.01,0.24,0,0.35,0H275.71z"/>
<path class="st0" d="M279.66,127.11c-0.13-0.08-0.28-0.02-0.4-0.09C279.4,127.01,279.55,126.98,279.66,127.11z"/>
<path class="st0" d="M280.39,127.25c-0.15-0.12-0.35,0-0.51-0.11C280.06,127.14,280.25,127.07,280.39,127.25z"/>
<path class="st0" d="M280.88,127.36c-0.12-0.09-0.27-0.02-0.39-0.09C280.63,127.26,280.77,127.23,280.88,127.36z"/>
<path class="st0" d="M281.49,127.49c-0.12-0.1-0.28-0.03-0.41-0.1C281.23,127.38,281.38,127.34,281.49,127.49z"/>
<path class="st0" d="M281.98,127.61c-0.11-0.1-0.27-0.02-0.39-0.1C281.73,127.5,281.88,127.47,281.98,127.61z"/>
<path class="st0" d="M282.47,127.73c-0.11-0.1-0.27-0.01-0.38-0.1C282.23,127.62,282.37,127.59,282.47,127.73z"/>
<path class="st0" d="M282.96,127.85c-0.11-0.09-0.27-0.01-0.38-0.1C282.72,127.74,282.86,127.72,282.96,127.85z"/>
<path class="st0" d="M283.45,127.98c-0.11-0.11-0.27-0.02-0.39-0.11C283.2,127.87,283.35,127.84,283.45,127.98z"/>
<path class="st0" d="M283.81,128.09c-0.08-0.06-0.19-0.05-0.28-0.09C283.64,127.99,283.74,127.99,283.81,128.09z"/>
<path class="st0" d="M225.13,179.01c0.01,0.14,0.04,0.28-0.09,0.39C225.12,179.28,225.05,179.13,225.13,179.01z"/>
<path class="st0" d="M225.28,178.91c-0.04,0-0.07,0.01-0.11,0.01C225.2,178.88,225.24,178.88,225.28,178.91z"/>
<path class="st0" d="M226.31,179.36c0.02,0,0.03,0.02,0.05,0.04c-0.1,0-0.18-0.02-0.24-0.11
	C226.17,179.34,226.25,179.34,226.31,179.36z"/>
<path class="st0" d="M226.37,179.41c0.06,0.07,0.17,0.04,0.24,0.11C226.51,179.52,226.42,179.51,226.37,179.41z"/>
<path class="st0" d="M227.9,180.1c0.02,0,0.04,0.02,0.05,0.04c-0.1,0-0.18-0.02-0.24-0.11C227.76,180.08,227.84,180.08,227.9,180.1z
	"/>
<path class="st0" d="M227.96,180.14c0.06,0.08,0.18,0.05,0.25,0.11C228.11,180.26,228.01,180.24,227.96,180.14z"/>
<path class="st0" d="M229,180.58c0.02,0,0.04,0.02,0.05,0.04c-0.09,0-0.18-0.01-0.24-0.1C228.86,180.56,228.94,180.56,229,180.58z"
	/>
<path class="st0" d="M233.94,203.33c-0.16-0.11-0.36,0-0.52-0.09C233.6,203.24,233.79,203.16,233.94,203.33z"/>
<path class="st0" d="M234.68,203.46c-0.17-0.11-0.37-0.02-0.55-0.1C234.32,203.36,234.52,203.28,234.68,203.46z"/>
<path class="st0" d="M235.41,203.58c-0.17-0.11-0.37-0.01-0.53-0.1C235.06,203.48,235.26,203.41,235.41,203.58z"/>
<path class="st0" d="M236.14,203.69c-0.16-0.1-0.35,0.01-0.51-0.09C235.81,203.6,235.99,203.53,236.14,203.69z"/>
<path class="st0" d="M237,203.81c-0.17-0.09-0.37,0-0.53-0.09C236.65,203.72,236.84,203.65,237,203.81z"/>
<path class="st0" d="M234.76,123.77c0.01-0.03,0.03-0.04,0.04-0.05c0,0.1-0.03,0.19-0.13,0.23
	C234.73,123.91,234.73,123.84,234.76,123.77z"/>
<path class="st0" d="M247.71,161.22c0.07,0.01,0.12,0.06,0.17,0.1C247.84,161.26,247.78,161.23,247.71,161.22z"/>
<path class="st0" d="M248.12,161.45c-0.04-0.05-0.12-0.05-0.18-0.08c-0.02,0-0.04-0.02-0.05-0.04
	C247.99,161.33,248.07,161.35,248.12,161.45z"/>
<path class="st0" d="M248.36,161.58c-0.05-0.09-0.17-0.06-0.23-0.12C248.23,161.45,248.32,161.48,248.36,161.58z"/>
<path class="st0" d="M242.88,184.44c0.16,0.08,0.34-0.01,0.5,0.08C243.21,184.52,243.03,184.59,242.88,184.44z"/>
<path class="st0" d="M244.11,184.57c0.16,0.06,0.34-0.01,0.5,0.07C244.44,184.64,244.26,184.71,244.11,184.57z"/>
<path class="st0" d="M243.68,204.46h1.42c-0.14,0.04-0.38,0.04-0.75,0.04c-0.11,0-0.22,0.01-0.33,0.01c-0.01,0-0.01,0-0.01,0
	C243.9,204.5,243.79,204.48,243.68,204.46z"/>
<path class="st0" d="M250.01,204.58c-1.17,0.08-2.35,0.07-3.52,0H250.01z"/>
<path class="st0" d="M231.12,134.28c-0.01,0.22,0.09,0.46-0.09,0.66C231.13,134.73,231.02,134.49,231.12,134.28z"/>
<path class="st0" d="M231.24,133.43c-0.01,0.23,0.1,0.47-0.1,0.66C231.27,133.89,231.14,133.64,231.24,133.43z"/>
<path class="st0" d="M231.37,132.71c-0.01,0.18,0.07,0.38-0.1,0.53C231.38,133.08,231.27,132.88,231.37,132.71z"/>
<path class="st0" d="M231.49,132.11c-0.01,0.18,0.07,0.37-0.11,0.52C231.51,132.47,231.39,132.26,231.49,132.11z"/>
<path class="st0" d="M231.61,131.59c0,0.15,0.05,0.31-0.11,0.43C231.6,131.89,231.54,131.73,231.61,131.59z"/>
<path class="st0" d="M231.62,131.53c0.14-0.14,0.01-0.34,0.12-0.49C231.73,131.22,231.8,131.4,231.62,131.53z"/>
<path class="st0" d="M231.74,131.04v-0.01c0.12-0.12,0.04-0.28,0.11-0.41C231.86,130.77,231.9,130.93,231.74,131.04z"/>
<path class="st0" d="M231.98,130.16c0,0.14,0.04,0.29-0.11,0.39C231.98,130.44,231.89,130.27,231.98,130.16z"/>
<path class="st0" d="M232.09,129.77c0.02,0.11,0.02,0.22-0.09,0.29C232.06,129.97,232.06,129.86,232.09,129.77z"/>
<path class="st0" d="M232.2,129.37c0.01-0.01,0.02-0.03,0.03-0.04c0,0.13,0.03,0.28-0.12,0.36
	C232.22,129.61,232.15,129.47,232.2,129.37z"/>
<path class="st0" d="M232.35,128.96c0,0.14,0.03,0.28-0.12,0.37c0.11-0.09,0.04-0.23,0.09-0.33
	C232.33,128.99,232.34,128.97,232.35,128.96z"/>
<path class="st0" d="M238.68,154.76c-0.11-0.17-0.29-0.25-0.43-0.4C238.48,154.4,238.63,154.53,238.68,154.76z"/>
<path class="st0" d="M239.91,155.86c0.03,0,0.06,0.01,0.08,0.03c-0.02-0.02-0.04-0.03-0.08-0.02V155.86
	c-0.07-0.14-0.23-0.17-0.33-0.27C239.76,155.6,239.88,155.67,239.91,155.86z"/>
<path class="st0" d="M240.64,156.47c-0.03-0.11-0.15-0.07-0.2-0.15C240.54,156.33,240.62,156.36,240.64,156.47z"/>
<path class="st0" d="M241.25,156.95c-0.03-0.1-0.15-0.07-0.2-0.14C241.15,156.82,241.23,156.85,241.25,156.95z"/>
<polygon class="st0" points="241.25,156.95 241.26,156.96 241.25,156.96 "/>
<path class="st0" d="M241.74,157.33v0.01l-0.01-0.01c-0.02-0.12-0.14-0.08-0.2-0.15C241.63,157.18,241.72,157.21,241.74,157.33z"/>
<path class="st0" d="M242.23,157.69c0.03,0,0.06,0.01,0.08,0.03c-0.02-0.02-0.04-0.03-0.08-0.02l-0.01-0.01
	c-0.02-0.11-0.15-0.07-0.2-0.15C242.12,157.55,242.21,157.58,242.23,157.69z"/>
<path class="st0" d="M242.73,158.06c-0.03-0.11-0.16-0.08-0.22-0.15C242.61,157.91,242.7,157.94,242.73,158.06z"/>
<path class="st0" d="M96.44,118.34c0.1,0,0.18,0.02,0.23,0.11c-0.05-0.05-0.12-0.05-0.18-0.07
	C96.47,118.38,96.45,118.36,96.44,118.34z"/>
<path class="st0" d="M96.91,118.58c-0.05-0.06-0.12-0.06-0.18-0.08c-0.02,0-0.03-0.02-0.05-0.04
	C96.78,118.46,96.87,118.48,96.91,118.58z"/>
<path class="st0" d="M295.04,190.22c0.02,0.12,0.01,0.23-0.12,0.29C295.03,190.44,295.01,190.32,295.04,190.22z"/>
<path class="st0" d="M295.18,189.9c0,0.1-0.01,0.19-0.11,0.25C295.14,190.08,295.12,189.97,295.18,189.9z"/>
<path class="st0" d="M300.08,202.91c-0.01,0.06-0.01,0.11-0.01,0.17c-1.42,0-2.85,0.01-4.27,0.02h-6.11
	c0.22-0.2,0.48-0.19,0.75-0.19c3.16,0,6.32-0.02,9.48,0H300.08z"/>
<path class="st0" d="M295.3,111.06c-0.22,1.05-0.44,2.1-0.67,3.15c-0.13,0.57-0.2,1.16-0.41,1.71c-0.13,1.09-0.42,2.15-0.65,3.23
	c-0.8,3.79-1.62,7.59-2.44,11.38c-0.01,0.06-0.04,0.11-0.06,0.17c-0.16,0.09-0.28-0.03-0.4-0.08c-2.1-0.95-4.26-1.74-6.46-2.39
	c-0.1-0.02-0.19-0.08-0.28-0.11c-0.04-0.01-0.08-0.02-0.12-0.03c-0.07-0.1-0.17-0.1-0.28-0.09l-0.05,0.01l-0.03-0.03
	c-0.1-0.14-0.25-0.11-0.39-0.11l-0.05,0.01l-0.05-0.03c-0.1-0.13-0.24-0.11-0.38-0.1l-0.06,0.01l-0.05-0.03
	c-0.1-0.14-0.24-0.11-0.38-0.1l-0.06,0.01l-0.05-0.03c-0.1-0.14-0.25-0.11-0.39-0.1l-0.05,0.01l-0.05-0.03
	c-0.11-0.15-0.26-0.11-0.41-0.1c-0.06-0.01-0.13-0.02-0.2-0.03c-0.11-0.13-0.25-0.1-0.39-0.09l-0.05,0.01l-0.05-0.03
	c-0.14-0.18-0.33-0.11-0.51-0.11c-0.07-0.01-0.15-0.02-0.22-0.03c-0.11-0.13-0.26-0.1-0.4-0.09c-0.65-0.01-1.28-0.19-1.93-0.26
	c-0.91-0.11-1.81-0.23-2.71-0.35c-0.65-0.02-1.3-0.05-1.94-0.07c-2.79-0.11-5.55,0.01-8.28,0.67c-0.33,0.08-0.66,0.16-0.99,0.24
	c-0.34,0.13-0.68,0.26-1.02,0.38c-1.33,0.5-2.52,1.22-3.62,2.09c-0.35,0.4-0.73,0.77-1.05,1.18c-1.83,2.38-1.77,5.19,0.15,7.49
	c0.92,1.1,2.03,1.98,3.21,2.79c0.33,0.23,0.66,0.46,0.99,0.69c0.03,0.13,0.13,0.16,0.24,0.15v0.01c0.06,0.17,0.19,0.25,0.37,0.23
	c0.04,0.11,0.13,0.13,0.23,0.13l0.01,0.01c0.07,0.17,0.19,0.25,0.37,0.22c0.04,0.12,0.13,0.14,0.24,0.14
	c0.36,0.1,0.65,0.34,0.97,0.51c1.74,0.92,3.48,1.85,5.22,2.78c0.14,0.08,0.3,0.12,0.41,0.26c1.51,0.7,2.94,1.54,4.38,2.37
	c0.97,0.55,1.95,1.09,2.84,1.77c1.09,0.6,2.07,1.35,3.06,2.1c2.15,1.63,4.11,3.46,5.76,5.6c2.56,3.29,4.1,7,4.52,11.15
	c0.46,4.54-0.11,8.96-1.64,13.26c-0.02,0.06-0.06,0.1-0.1,0.15c-0.15,0.68-0.46,1.29-0.75,1.92c-0.74,1.6-1.58,3.15-2.67,4.55
	c-0.8,1.26-1.79,2.36-2.82,3.43c-0.37,0.39-0.72,0.8-1.18,1.11h-0.01v0.01c-0.07,0-0.11,0.04-0.12,0.1l-0.01,0.01
	c-0.03,0-0.05,0.01-0.07,0.04c-0.03,0.01-0.04,0.03-0.05,0.07l-0.01,0.01c-0.06,0.01-0.1,0.05-0.12,0.11
	c-0.06,0.02-0.11,0.06-0.13,0.12c-0.04,0.04-0.08,0.08-0.12,0.11l-0.01,0.01c-0.04,0.03-0.08,0.07-0.12,0.1l-0.01,0.02
	c-0.19,0.01-0.31,0.09-0.34,0.29c-1.42,1.26-2.97,2.36-4.64,3.28v-0.01c-0.01,0-0.03,0-0.04,0.01c-0.03,0-0.06,0.02-0.07,0.05
	c-0.02,0.01-0.02,0.02-0.03,0.03c-1.06,0.72-2.21,1.27-3.37,1.8c-1.45,0.67-2.91,1.31-4.45,1.75c-1.06,0.43-2.16,0.71-3.25,1.01
	c-1.57,0.43-3.17,0.75-4.76,1.05c-0.1,0.01-0.21,0.01-0.31,0.01c-0.96,0.25-1.95,0.33-2.93,0.46c-1.58,0.19-3.18,0.32-4.77,0.4
	c-0.16,0.01-0.32-0.01-0.49-0.01c-0.43,0.03-0.86,0.1-1.29,0.03h-3.52c-0.83,0.01-1.65,0.03-2.47-0.07c0.11,0,0.22-0.01,0.33-0.01
	c0.37,0,0.61,0,0.75-0.04h-1.42c-0.93,0.04-1.86-0.1-2.78-0.17c-1.09-0.09-2.18-0.23-3.26-0.36c-0.1-0.01-0.2-0.05-0.29-0.08
	c-0.12-0.01-0.24-0.03-0.35-0.04c-0.16-0.16-0.35-0.09-0.53-0.09c-0.11,0.03-0.22,0.01-0.33-0.03c-0.15-0.16-0.33-0.09-0.51-0.09
	c-0.07-0.01-0.15-0.02-0.22-0.02c-0.15-0.17-0.35-0.1-0.53-0.1c-0.07-0.01-0.14-0.02-0.2-0.02c-0.16-0.18-0.36-0.1-0.55-0.1
	c-0.06,0.03-0.13,0.01-0.19-0.03c-0.15-0.17-0.34-0.09-0.52-0.09c-1.23-0.16-2.44-0.41-3.64-0.75c-1.03-0.15-2.01-0.46-3.01-0.73
	c-1.94-0.53-3.84-1.18-5.69-1.97c-0.3-0.12-0.39-0.28-0.32-0.6c0.96-4.42,1.9-8.84,2.85-13.27c0.01-0.05,0.05-0.11,0.07-0.16
	c0.14-1.03,0.4-2.03,0.62-3.04c0.24-1.11,0.43-2.23,0.74-3.32c0.13-0.11,0.1-0.25,0.09-0.39c-0.02-0.05-0.01-0.08,0.04-0.09
	c0.04,0,0.07-0.01,0.11-0.01c0.04,0.01,0.08,0.02,0.12,0.04c0.04,0.02,0.09,0.05,0.14,0.08c0.04-0.02,0.07,0,0.1,0.03
	c0.05,0.03,0.09,0.08,0.15,0.08c0.04-0.01,0.07,0,0.09,0.04c0.04,0.06,0.1,0.08,0.17,0.09c0.04-0.02,0.06-0.01,0.07,0.02
	c0.06,0.09,0.14,0.11,0.24,0.11l0.01,0.01c0.05,0.1,0.14,0.11,0.24,0.11c0.05,0.02,0.09,0.03,0.13,0.05
	c0.04,0.02,0.08,0.05,0.12,0.07c0.04,0.02,0.09,0.03,0.13,0.04c0.04,0.03,0.09,0.05,0.13,0.08c0.05-0.01,0.08,0,0.11,0.04
	c0.05,0.03,0.1,0.05,0.14,0.08c0.05-0.01,0.08,0,0.1,0.03c0.05,0.04,0.1,0.09,0.17,0.09c0.03-0.02,0.06-0.01,0.07,0.03
	c0.06,0.09,0.14,0.11,0.24,0.11h0.01c0.05,0.1,0.15,0.12,0.25,0.11c0.04,0.02,0.08,0.03,0.12,0.04c0.05,0.03,0.09,0.05,0.14,0.08
	c0.04-0.01,0.08,0,0.1,0.04c0.05,0.03,0.1,0.07,0.16,0.08c0.04-0.02,0.07-0.01,0.08,0.03c0.06,0.09,0.15,0.1,0.24,0.1
	c0.05,0.02,0.09,0.03,0.14,0.05c0.04,0.02,0.08,0.04,0.13,0.07c0.04-0.01,0.08,0,0.1,0.03c1.69,0.65,3.36,1.35,5.09,1.87
	c1.08,0.31,2.15,0.61,3.23,0.92c0.95,0.17,1.9,0.36,2.86,0.52c0.76,0.13,1.52,0.24,2.28,0.36c0.15,0.15,0.33,0.08,0.5,0.08
	c0.24-0.02,0.49,0.01,0.73,0.05c0.15,0.14,0.33,0.07,0.5,0.07c0.28-0.02,0.56,0,0.83,0.05c1.58,0.09,3.15,0.11,4.73,0.11
	c0.91,0,1.81-0.1,2.72-0.12c1.2-0.2,2.4-0.37,3.58-0.67c1.57-0.41,3.06-1.03,4.48-1.8c0.86-0.62,1.71-1.24,2.41-2.04
	c2.07-2.39,2.53-6.25,0.16-9.13c-1.02-1.24-2.26-2.22-3.57-3.12c-0.98-0.69-2.03-1.26-3.04-1.91c0,0-0.01,0-0.01-0.01
	c-0.04-0.01-0.06-0.02-0.1-0.04c-0.03-0.06-0.07-0.09-0.13-0.09c-0.04-0.12-0.13-0.14-0.24-0.13c-0.05-0.11-0.14-0.13-0.25-0.13
	c-0.81-0.41-1.62-0.82-2.44-1.23c-1.61-0.8-3.24-1.58-4.82-2.45c-0.19-0.1-0.41-0.17-0.56-0.35c-0.04-0.1-0.13-0.13-0.23-0.12
	l-0.01-0.01c-0.05-0.1-0.13-0.12-0.23-0.12l-0.01-0.01c-0.04-0.06-0.1-0.09-0.17-0.1c-1.31-0.65-2.53-1.46-3.75-2.26
	c-0.42-0.28-0.87-0.53-1.23-0.9c-0.03-0.12-0.12-0.15-0.22-0.15l-0.01-0.01c-0.05-0.03-0.08-0.06-0.13-0.1
	c-0.01-0.04-0.03-0.07-0.06-0.08c-0.02-0.02-0.05-0.03-0.08-0.03c-0.02-0.11-0.11-0.14-0.21-0.15h-0.01
	c-0.04-0.04-0.07-0.08-0.13-0.1l-0.01-0.01c-0.02-0.06-0.06-0.1-0.13-0.1c-0.02-0.12-0.11-0.15-0.21-0.15l-0.01-0.01
	c-0.04-0.04-0.08-0.09-0.13-0.11c-0.03-0.06-0.07-0.1-0.13-0.1l-0.01-0.01c-0.02-0.1-0.1-0.13-0.2-0.14l-0.02-0.01
	c-0.04-0.04-0.08-0.07-0.12-0.11c-0.04-0.05-0.07-0.08-0.13-0.11c-0.01-0.04-0.03-0.07-0.06-0.08c-0.02-0.02-0.04-0.03-0.07-0.02
	l-0.01-0.01c-0.02-0.11-0.1-0.14-0.2-0.15l-0.02-0.02c-0.04-0.03-0.07-0.06-0.11-0.1h-0.01c-0.04-0.04-0.09-0.08-0.13-0.12
	c-0.01-0.03-0.03-0.05-0.05-0.06c-0.01-0.03-0.04-0.04-0.07-0.04l-0.01-0.01c-0.01-0.04-0.02-0.07-0.05-0.08
	c-0.02-0.02-0.05-0.03-0.08-0.03c-0.03-0.19-0.15-0.26-0.33-0.27l-0.01-0.01c-0.04-0.04-0.08-0.08-0.12-0.11l-0.01-0.01
	c-0.04-0.04-0.08-0.07-0.12-0.11c-0.04-0.04-0.09-0.08-0.13-0.12c-0.02-0.06-0.06-0.09-0.12-0.11l-0.01-0.01
	c-0.02-0.06-0.06-0.1-0.12-0.11c-0.01-0.04-0.02-0.06-0.05-0.08c-0.01-0.02-0.04-0.04-0.08-0.03l-0.01-0.01
	c0-0.07-0.04-0.11-0.11-0.11l-0.01-0.01c-0.05-0.23-0.2-0.36-0.43-0.4l-0.02-0.02c-0.04-0.03-0.07-0.06-0.11-0.1l-0.02-0.02
	c-0.03-0.03-0.07-0.07-0.1-0.1l-0.24-0.24c-1.54-1.47-2.83-3.13-3.92-4.95c-2.13-3.54-3.14-7.37-2.99-11.5
	c0.03-0.83,0-1.67,0.18-2.49c0.18-0.2,0.08-0.44,0.09-0.66c-0.03-0.07-0.02-0.13,0.02-0.19c0.2-0.19,0.09-0.43,0.1-0.66
	c0.01-0.06,0.02-0.13,0.03-0.19c0.17-0.15,0.09-0.35,0.1-0.53c-0.03-0.03-0.02-0.06,0.01-0.08c0.18-0.15,0.1-0.34,0.11-0.52
	c-0.02-0.04-0.02-0.07,0.01-0.09c0.16-0.12,0.11-0.28,0.11-0.43l-0.02-0.03l0.03-0.03c0.18-0.13,0.11-0.31,0.12-0.49
	c0.16-0.11,0.12-0.27,0.11-0.42l-0.01-0.04l0.03-0.03c0.15-0.1,0.11-0.25,0.11-0.39c-0.02-0.04-0.01-0.07,0.02-0.1
	c0.11-0.07,0.11-0.18,0.09-0.29l-0.01-0.04l0.03-0.04c0.15-0.08,0.12-0.23,0.12-0.36c0.15-0.09,0.12-0.23,0.12-0.37
	c0.17-0.75,0.5-1.45,0.81-2.15c0.42-0.94,0.85-1.88,1.43-2.74c0.03-0.04,0.05-0.08,0.08-0.12c0.1-0.04,0.13-0.13,0.13-0.23
	l0.01-0.01c0.03-0.05,0.09-0.08,0.1-0.15c0.55-1.06,1.28-2,2.02-2.93c0.84-1.04,1.71-2.05,2.73-2.92c0.8-0.89,1.74-1.62,2.69-2.34
	c1.02-0.79,2.06-1.56,3.21-2.16c1.28-0.88,2.67-1.54,4.07-2.19c0.7-0.33,1.39-0.68,2.14-0.88c1.18-0.57,2.44-0.94,3.69-1.33
	c0.45-0.13,0.88-0.3,1.35-0.35c1.05-0.37,2.15-0.57,3.23-0.8c2.15-0.45,4.31-0.77,6.5-0.94c0.12-0.01,0.24,0,0.36,0
	c0.59-0.18,1.2-0.12,1.8-0.16c1.49-0.11,2.99-0.13,4.48-0.07c0.12,0.15,0.29,0.12,0.45,0.12c0.8,0,1.61-0.01,2.41-0.01
	c0.11-0.05,0.22-0.03,0.32,0.01c1.19-0.03,2.36,0.14,3.53,0.28c3.91,0.45,7.74,1.29,11.5,2.44c0.17,0.05,0.37,0.06,0.51,0.19
	c1.11,0.26,2.16,0.7,3.24,1.05C295.44,110.67,295.34,110.87,295.3,111.06z"/>
<path class="st0" d="M188.82,108.56c-2.23,5.32-4.46,10.63-6.69,15.95c-0.03,0.07-0.08,0.13-0.13,0.2c-0.29,0.93-0.72,1.8-1.09,2.7
	c-1.18,2.82-2.36,5.63-3.55,8.45c-0.06,0.17-0.1,0.35-0.24,0.48c-0.14,0.56-0.4,1.06-0.62,1.58c-1.7,4.07-3.41,8.15-5.12,12.22
	c-0.07,0.16-0.11,0.35-0.24,0.48c-0.18,0.65-0.49,1.24-0.75,1.86c-1.01,2.43-2.03,4.86-3.06,7.29c-0.07,0.17-0.1,0.35-0.24,0.49
	c0.01,0.12-0.06,0.23-0.1,0.34c-1.87,4.45-3.74,8.91-5.61,13.36c-0.04,0.11-0.06,0.24-0.17,0.32c-0.32,1-0.78,1.95-1.19,2.92
	c-1.51,3.61-3.02,7.21-4.54,10.82c-0.07,0.18-0.11,0.39-0.26,0.54c-0.33,1.02-0.8,1.99-1.21,2.98c-1.46,3.5-2.93,7-4.4,10.49
	c-0.07,0.17-0.1,0.35-0.24,0.48c-0.21,0.67-0.21,0.67-0.85,0.67c-8.25,0-16.5,0.01-24.74,0c-0.2,0-0.41,0.08-0.59-0.07
	c0.01-0.1-0.01-0.2-0.1-0.25c-0.4-1.2-0.67-2.43-0.98-3.65c-3.04-11.74-6.08-23.48-9.12-35.22c-3.03-11.74-6.07-23.48-9.11-35.22
	c-0.36-1.38-0.71-2.76-1.16-4.11c-0.76-2.28-2.17-4.02-4.27-5.2c-0.51-0.29-1.01-0.59-1.52-0.88h-0.02
	c-0.04-0.1-0.13-0.12-0.23-0.12l-0.01-0.01c-0.05-0.09-0.13-0.11-0.23-0.11c-1-0.45-2-0.91-3.01-1.33
	c-2.92-1.23-5.92-2.26-8.95-3.19c-0.1-0.03-0.2-0.04-0.27-0.12l-0.01-0.01c-0.09-0.14-0.24-0.11-0.37-0.11
	c-0.04-0.01-0.08-0.02-0.12-0.02c-0.07-0.1-0.16-0.11-0.27-0.1c-1.09-0.22-2.14-0.58-3.22-0.87c-2.12-0.56-4.24-1.07-6.38-1.56
	c-0.43-0.1-0.43-0.11-0.35-0.51c0.14-0.63,0.31-1.26,0.41-1.9c0.05-0.37,0.21-0.45,0.55-0.45c1.71,0.02,3.42,0,5.12,0.01
	c0.98,0,1.95,0.02,2.93,0.03c0.14-0.01,0.28-0.03,0.42-0.03h10.15c0.15,0,0.29,0.02,0.43,0.03c0.14-0.01,0.28-0.03,0.42-0.03h10.15
	c0.14,0,0.29,0.02,0.43,0.03c0.14-0.01,0.28-0.03,0.42-0.03h10.28c0.14,0,0.28,0.02,0.42,0.03c3.44-0.09,6.32,1.15,8.65,3.66
	c1.61,1.74,2.52,3.85,2.96,6.18c1.25,6.62,2.51,13.25,3.76,19.87c1.03,5.51,2.06,11.02,3.1,16.53c0.63,3.34,1.26,6.67,1.89,10
	c0.03,0.18,0.04,0.36,0.06,0.54c0.28,0.98,0.4,1.98,0.6,2.97c0.3,1.55,0.58,3.1,0.88,4.7c0.33-0.32,0.31-0.78,0.56-1.08
	c0.19-0.69,0.5-1.33,0.76-1.99c1.59-4.04,3.19-8.08,4.79-12.11c0.06-0.15,0.08-0.32,0.21-0.43c0.26-0.9,0.65-1.74,0.99-2.61
	c1.47-3.73,2.95-7.46,4.43-11.19c0.06-0.17,0.15-0.33,0.23-0.49c0.09-0.06,0.11-0.15,0.1-0.25c0.1-0.48,0.33-0.91,0.51-1.36
	c1.62-4.13,3.26-8.25,4.89-12.38c0.06-0.14,0.09-0.31,0.21-0.42c0.3-0.99,0.74-1.93,1.11-2.89c0.9-2.29,1.81-4.59,2.72-6.88
	c0.07-0.16,0.1-0.35,0.23-0.49c0.37-1.15,0.87-2.26,1.31-3.4c0.79-2,1.58-3.99,2.37-5.99c0.2-0.51,0.2-0.52,0.73-0.52
	c1.1,0.01,2.2,0.02,3.29,0.03c0.22-0.01,0.45-0.03,0.67-0.03c2.59,0,5.18,0,7.77,0.01c0.21,0,0.41,0.01,0.61,0.02
	c0.14-0.01,0.28-0.02,0.42-0.02c4.01-0.01,8.02-0.01,12.03-0.01h0.4C188.95,108.35,188.86,108.45,188.82,108.56z"/>
<path class="st0" d="M83.44,113.46c0.11-0.01,0.2,0,0.27,0.1C83.63,113.5,83.53,113.51,83.44,113.46z"/>
<path class="st0" d="M84.2,113.69c-0.1-0.11-0.27-0.01-0.37-0.11C83.96,113.58,84.11,113.55,84.2,113.69z"/>
<path class="st0" d="M224,108.19h-0.95c-1.75,0.01-3.49,0.02-5.24,0.02c-1.25-0.01-2.5-0.02-3.75-0.02c-1.08,0-2.15,0.01-3.22,0.02
	c-0.12-0.01-0.24-0.02-0.36-0.02h-10.44c-0.1,0-0.2-0.01-0.3,0c-0.14,0-0.23,0.06-0.26,0.21c-0.18,1.03-0.49,2.05-0.62,3.1
	c-0.15,0.29-0.17,0.62-0.23,0.94c-1.29,5.98-2.57,11.96-3.85,17.95c-0.23,1.11-0.53,2.21-0.68,3.34c-0.03,0.02-0.04,0.05-0.02,0.09
	c0,0.18,0.08,0.38-0.11,0.52c-0.04,0.11-0.09,0.22-0.11,0.34c-0.85,3.94-1.7,7.88-2.54,11.83c-0.22,1.07-0.51,2.13-0.64,3.22
	c-0.04,0.09-0.09,0.18-0.11,0.28c-0.69,3.21-1.39,6.42-2.06,9.63c-0.22,1.05-0.5,2.09-0.64,3.15c-0.04,0.16-0.1,0.31-0.13,0.47
	c-0.88,4.11-1.77,8.21-2.64,12.32c-0.23,1.07-0.51,2.13-0.65,3.22c-0.04,0.02-0.04,0.05-0.02,0.09c-0.01,0.18,0.07,0.37-0.11,0.51
	c-0.04,0.03-0.04,0.05-0.02,0.09c0,0.18,0.08,0.38-0.11,0.53l-0.03,0.02l0.02,0.04c0.01,0.15,0.05,0.31-0.1,0.42
	c-0.03,0.03-0.04,0.06-0.02,0.1c0,0.18,0.07,0.37-0.11,0.51c-0.03,0.03-0.04,0.05-0.01,0.09c-0.01,0.18,0.07,0.38-0.12,0.53
	l-0.02,0.02l0.01,0.04c0.01,0.15,0.05,0.31-0.1,0.42c-0.03,0.03-0.03,0.07-0.01,0.1c-0.01,0.18,0.06,0.37-0.11,0.51
	c-0.04,0.03-0.04,0.05-0.02,0.09c0,0.18,0.08,0.38-0.11,0.53l-0.03,0.02l0.02,0.04c0,0.15,0.05,0.31-0.1,0.42
	c-0.04,0.03-0.04,0.07-0.02,0.1c-0.01,0.18,0.07,0.37-0.11,0.51c-0.04,0.03-0.04,0.06-0.02,0.09c0.01,0.14,0.05,0.29-0.09,0.4
	c-0.01,0.06-0.02,0.13-0.03,0.19c0.01,0.15,0.05,0.31-0.1,0.42c-0.04,0.14-0.09,0.27-0.12,0.41c-0.6,2.78-1.21,5.56-1.79,8.34
	c-0.23,1.11-0.53,2.21-0.67,3.34c-0.22,0.57-0.29,1.17-0.42,1.76c-0.23,1.12-0.53,2.22-0.68,3.36c-0.11,0.16-0.14,0.3,0.11,0.34
	c0.1,0.01,0.2,0,0.31,0h23.55c0.51,0,0.51,0,0.62-0.51c0.52-2.4,1.05-4.8,1.55-7.2c0.22-1.07,0.51-2.13,0.64-3.22
	c0.04-0.07,0.08-0.14,0.1-0.22c0.89-4.19,1.8-8.37,2.68-12.56c0.23-1.07,0.52-2.13,0.65-3.22c0.19-0.47,0.25-0.97,0.35-1.47
	c1.25-5.81,2.5-11.62,3.73-17.43c0.24-1.11,0.53-2.21,0.68-3.34c0.03-0.09,0.08-0.18,0.1-0.28c1.34-6.25,2.69-12.5,4.02-18.76
	c0.23-1.09,0.52-2.17,0.66-3.28c0.03-0.07,0.07-0.14,0.09-0.22c0.69-3.21,1.39-6.43,2.06-9.65c0.23-1.07,0.52-2.13,0.65-3.22
	c0.03-0.05,0.07-0.11,0.08-0.16c0.7-3.25,1.39-6.5,2.09-9.75C224.05,108.54,224.11,108.38,224,108.19z M193.24,203.08
	c-0.03-0.06-0.06-0.11-0.08-0.17h0.08C193.25,202.97,193.25,203.02,193.24,203.08z"/>
<path class="st0" d="M250.01,204.58c-1.17,0.13-2.35,0.12-3.52,0H250.01z"/>
<path class="st0" d="M276.04,106.6c-0.8,0-1.61,0.01-2.41,0.01c-0.16,0-0.33,0.03-0.45-0.12c0.84-0.01,1.67-0.05,2.5,0.06h0.03
	C275.82,106.56,275.93,106.58,276.04,106.6z"/>
<path class="st0" d="M238.68,154.76c-0.19-0.09-0.33-0.22-0.43-0.4C238.48,154.4,238.63,154.53,238.68,154.76z"/>
<path class="st0" d="M335.4,108.32c-0.19,0.21-0.43,0.1-0.65,0.11C334.95,108.3,335.18,108.31,335.4,108.32z"/>
<path class="st0" d="M231.14,134.09c-0.01-0.23-0.03-0.45,0.1-0.66C231.23,133.66,231.34,133.9,231.14,134.09z"/>
<path class="st0" d="M231.03,134.94c-0.02-0.22-0.04-0.45,0.09-0.66C231.11,134.5,231.21,134.74,231.03,134.94z"/>
<path class="st0" d="M334.67,108.44c-0.13,0.18-0.32,0.11-0.5,0.12C334.32,108.42,334.49,108.44,334.67,108.44z"/>
<path class="st0" d="M235.41,203.58c-0.19,0.01-0.37,0.02-0.53-0.1C235.06,203.48,235.26,203.41,235.41,203.58z"/>
<path class="st0" d="M236.14,203.69c-0.18,0.02-0.35,0.02-0.51-0.09C235.81,203.6,235.99,203.53,236.14,203.69z"/>
<path class="st0" d="M262.69,142.26h-0.01c-0.18,0.02-0.31-0.06-0.37-0.23C262.46,142.06,262.59,142.13,262.69,142.26z"/>
<path class="st0" d="M280.39,127.25c-0.18,0.01-0.36,0.01-0.51-0.11C280.06,127.14,280.25,127.07,280.39,127.25z"/>
<path class="st0" d="M263.29,142.62c-0.18,0.03-0.3-0.05-0.37-0.22C263.07,142.43,263.19,142.5,263.29,142.62z"/>
<path class="st0" d="M231.62,131.53c-0.01-0.18,0-0.34,0.12-0.49C231.73,131.22,231.8,131.4,231.62,131.53z"/>
<path class="st0" d="M231.38,132.63c-0.01-0.19-0.01-0.37,0.11-0.52C231.48,132.29,231.56,132.48,231.38,132.63z"/>
<path class="st0" d="M231.27,133.24c-0.02-0.19-0.02-0.37,0.1-0.53C231.36,132.89,231.44,133.09,231.27,133.24z"/>
<path class="st0" d="M193.97,134.34c-0.01-0.19-0.01-0.37,0.11-0.52C194.08,134,194.16,134.2,193.97,134.34z"/>
<path class="st0" d="M334.17,108.56c-0.12,0.19-0.31,0.11-0.48,0.12C333.83,108.56,334,108.55,334.17,108.56z"/>
<path class="st0" d="M239.91,155.86v0.01V155.86c-0.15-0.04-0.26-0.13-0.33-0.27C239.76,155.6,239.88,155.67,239.91,155.86z"/>
<path class="st0" d="M184.32,179.4c-0.01-0.18-0.01-0.35,0.11-0.51C184.42,179.07,184.5,179.26,184.32,179.4z"/>
<path class="st0" d="M184.19,180.02c-0.01-0.19-0.01-0.38,0.11-0.53C184.3,179.67,184.38,179.87,184.19,180.02z"/>
<path class="st0" d="M183.95,181.11c-0.01-0.18,0-0.35,0.11-0.51C184.06,180.78,184.13,180.97,183.95,181.11z"/>
<path class="st0" d="M183.82,181.73c0-0.19-0.01-0.37,0.12-0.53C183.93,181.38,184.01,181.58,183.82,181.73z"/>
<path class="st0" d="M237,203.81c-0.19,0.02-0.37,0.02-0.53-0.09C236.65,203.72,236.84,203.65,237,203.81z"/>
<path class="st0" d="M183.59,182.82c-0.02-0.18-0.01-0.35,0.11-0.51C183.69,182.49,183.76,182.68,183.59,182.82z"/>
<path class="st0" d="M183.46,183.44c-0.01-0.19-0.01-0.37,0.11-0.53C183.57,183.09,183.65,183.29,183.46,183.44z"/>
<path class="st0" d="M183.22,184.53c-0.01-0.18-0.01-0.35,0.11-0.51C183.32,184.2,183.4,184.39,183.22,184.53z"/>
<path class="st0" d="M243.38,184.52c-0.17,0-0.35,0.07-0.5-0.08C243.05,184.42,243.22,184.43,243.38,184.52z"/>
<path class="st0" d="M244.61,184.64c-0.17,0-0.35,0.07-0.5-0.07C244.28,184.55,244.45,184.55,244.61,184.64z"/>
<path class="st0" d="M280.75,194.43c-0.08,0.14-0.2,0.23-0.34,0.29C280.44,194.52,280.56,194.44,280.75,194.43z"/>
<path class="st0" d="M233.94,203.33c-0.18,0.02-0.36,0.02-0.52-0.09C233.6,203.24,233.79,203.16,233.94,203.33z"/>
<path class="st0" d="M234.68,203.46c-0.19,0.01-0.38,0.02-0.55-0.1C234.32,203.36,234.52,203.28,234.68,203.46z"/>
<path class="st0" d="M333.68,108.68c-0.08,0.16-0.23,0.13-0.36,0.12c0.01-0.02,0.02-0.03,0.04-0.03
	C333.44,108.68,333.57,108.68,333.68,108.68z"/>
<path class="st0" d="M333.32,108.8c-0.08,0.16-0.23,0.13-0.37,0.13c0.01-0.01,0.03-0.03,0.04-0.03
	C333.08,108.81,333.2,108.8,333.32,108.8z"/>
<path class="st0" d="M315.6,141.18c-0.01,0.12,0.01,0.25-0.09,0.31c-0.01,0.02-0.03,0.03-0.05,0.03l-0.01,0.01
	c0.01-0.12,0.03-0.23,0.12-0.31C315.58,141.2,315.59,141.19,315.6,141.18z"/>
<path class="st0" d="M320,130.68c-0.01,0.12,0.01,0.25-0.1,0.32h-0.01c-0.01,0.02-0.02,0.03-0.03,0.03v-0.01
	c0-0.11,0.03-0.22,0.11-0.3C319.98,130.7,319.99,130.69,320,130.68z"/>
<path class="st0" d="M231.74,131.04v-0.01c-0.01-0.15,0-0.29,0.11-0.41C231.86,130.77,231.9,130.93,231.74,131.04z"/>
<path class="st0" d="M231.87,130.55c-0.01-0.14,0-0.28,0.11-0.39C231.98,130.3,232.02,130.45,231.87,130.55z"/>
<path class="st0" d="M232.11,129.69c-0.01-0.11,0.01-0.23,0.09-0.32c0.01-0.01,0.02-0.03,0.03-0.04
	C232.23,129.46,232.26,129.61,232.11,129.69z"/>
<path class="st0" d="M232.23,129.33c-0.01-0.12,0.01-0.24,0.09-0.33c0.01-0.01,0.02-0.03,0.03-0.04
	C232.35,129.1,232.38,129.24,232.23,129.33z"/>
<path class="st0" d="M283.45,127.98c-0.14,0.01-0.28,0-0.39-0.11C283.2,127.87,283.35,127.84,283.45,127.98z"/>
<path class="st0" d="M282.96,127.85c-0.14,0.02-0.27,0-0.38-0.1C282.72,127.74,282.86,127.72,282.96,127.85z"/>
<path class="st0" d="M282.47,127.73c-0.14,0.02-0.27,0-0.38-0.1C282.23,127.62,282.37,127.59,282.47,127.73z"/>
<path class="st0" d="M225.04,179.4c-0.02-0.14-0.01-0.28,0.09-0.39C225.14,179.15,225.17,179.29,225.04,179.4z"/>
<path class="st0" d="M184.08,180.5c-0.01-0.15-0.01-0.3,0.1-0.42C184.19,180.23,184.23,180.39,184.08,180.5z"/>
<path class="st0" d="M281.98,127.61c-0.14,0.01-0.28,0-0.39-0.1C281.73,127.5,281.88,127.47,281.98,127.61z"/>
<path class="st0" d="M183.71,182.21c-0.01-0.15-0.01-0.3,0.1-0.42C183.82,181.94,183.86,182.1,183.71,182.21z"/>
<path class="st0" d="M318.41,134.46c0,0.13,0.02,0.26-0.1,0.33c-0.01,0.01-0.02,0.02-0.04,0.03v-0.01c0-0.12,0.03-0.22,0.11-0.31
	C318.38,134.49,318.4,134.47,318.41,134.46z"/>
<path class="st0" d="M231.5,132.02c-0.01-0.16-0.01-0.31,0.11-0.43C231.61,131.74,231.66,131.9,231.5,132.02z"/>
<path class="st0" d="M183.35,183.92c-0.02-0.15-0.02-0.3,0.1-0.42C183.45,183.65,183.5,183.81,183.35,183.92z"/>
<path class="st0" d="M281.49,127.49c-0.14,0.01-0.29,0.01-0.41-0.1C281.23,127.38,281.38,127.34,281.49,127.49z"/>
<path class="st0" d="M183.11,185.02c-0.02-0.14-0.01-0.28,0.09-0.4C183.21,184.76,183.25,184.91,183.11,185.02z"/>
<path class="st0" d="M280.88,127.36c-0.14,0.02-0.28,0.01-0.39-0.09C280.63,127.26,280.77,127.23,280.88,127.36z"/>
<path class="st0" d="M182.98,185.63c-0.01-0.15-0.01-0.3,0.1-0.42C183.09,185.36,183.13,185.52,182.98,185.63z"/>
<path class="st0" d="M279.66,127.11c-0.15,0.02-0.28,0.01-0.4-0.09C279.4,127.01,279.55,126.98,279.66,127.11z"/>
<path class="st0" d="M84.2,113.69c-0.14,0.01-0.27,0-0.37-0.11C83.96,113.58,84.11,113.55,84.2,113.69z"/>
<path class="st0" d="M316.21,139.72c-0.01,0.12,0.01,0.25-0.1,0.32c-0.01,0.02-0.03,0.02-0.04,0.03v-0.01c0-0.12,0.03-0.23,0.11-0.3
	C316.19,139.74,316.2,139.73,316.21,139.72z"/>
<path class="st0" d="M319.39,132.14c-0.01,0.12,0.01,0.25-0.09,0.31c-0.01,0.03-0.03,0.04-0.05,0.04v0.01h-0.01v-0.01
	c0.01-0.12,0.03-0.24,0.12-0.31C319.37,132.16,319.38,132.15,319.39,132.14z"/>
<path class="st0" d="M320.36,129.82c0.01,0.1-0.01,0.18-0.1,0.24C320.25,129.96,320.28,129.88,320.36,129.82z"/>
<path class="st0" d="M320.23,130.14c0.01,0.11,0,0.22-0.12,0.28C320.11,130.31,320.13,130.21,320.23,130.14z"/>
<path class="st0" d="M320.11,130.42c0.01,0.1-0.01,0.19-0.11,0.25C320,130.57,320.02,130.48,320.11,130.42z"/>
<path class="st0" d="M240.64,156.47c-0.1-0.01-0.16-0.06-0.2-0.15C240.54,156.33,240.62,156.36,240.64,156.47z"/>
<path class="st0" d="M319.86,131.03c0.01,0.11,0,0.2-0.11,0.25c0-0.1,0.01-0.19,0.1-0.25H319.86z"/>
<path class="st0" d="M241.26,156.96h-0.01c-0.1-0.01-0.16-0.06-0.2-0.15c0.1,0.01,0.18,0.04,0.2,0.14L241.26,156.96z"/>
<path class="st0" d="M319.75,131.28c0,0.1-0.01,0.19-0.11,0.25C319.63,131.42,319.66,131.34,319.75,131.28z"/>
<path class="st0" d="M319.62,131.6c0.01,0.12,0,0.23-0.12,0.29v-0.01C319.5,131.77,319.52,131.67,319.62,131.6z"/>
<path class="st0" d="M241.74,157.33v0.01c-0.09-0.02-0.17-0.06-0.21-0.16C241.63,157.18,241.72,157.21,241.74,157.33z"/>
<path class="st0" d="M242.23,157.69v0.01l-0.01-0.01c-0.1,0-0.17-0.05-0.2-0.15C242.12,157.55,242.21,157.58,242.23,157.69z"/>
<path class="st0" d="M319.5,131.88v0.01c0.01,0.11-0.01,0.19-0.11,0.25C319.38,132.03,319.4,131.94,319.5,131.88z"/>
<path class="st0" d="M242.73,158.06c-0.1-0.01-0.18-0.05-0.22-0.15C242.61,157.91,242.7,157.94,242.73,158.06z"/>
<path class="st0" d="M319.25,132.49v0.01c0.01,0.1-0.01,0.19-0.11,0.25v-0.01c-0.01-0.1,0.01-0.19,0.1-0.25
	C319.24,132.48,319.25,132.49,319.25,132.49z"/>
<path class="st0" d="M319.14,132.75c0,0.1-0.02,0.18-0.11,0.24C319.02,132.89,319.05,132.81,319.14,132.75z"/>
<path class="st0" d="M319,133.06c0.02,0.12,0.01,0.22-0.11,0.28l-0.01,0.01C318.88,133.24,318.9,133.13,319,133.06z"/>
<path class="st0" d="M318.89,133.34c0.01,0.11-0.01,0.21-0.12,0.26c0-0.1,0.02-0.19,0.11-0.25L318.89,133.34z"/>
<path class="st0" d="M318.77,133.6c0.01,0.1-0.01,0.19-0.1,0.25C318.66,133.74,318.69,133.66,318.77,133.6z"/>
<path class="st0" d="M318.64,133.93c0.01,0.11,0,0.22-0.12,0.28v-0.01C318.52,134.09,318.54,134,318.64,133.93z"/>
<path class="st0" d="M248.12,161.45c-0.07,0-0.13-0.02-0.18-0.08c-0.02,0-0.04-0.02-0.05-0.04
	C247.99,161.33,248.07,161.35,248.12,161.45z"/>
<path class="st0" d="M318.52,134.2L318.52,134.2c0.01,0.12-0.01,0.2-0.11,0.26C318.41,134.36,318.43,134.26,318.52,134.2z"/>
<path class="st0" d="M248.36,161.58c-0.1,0-0.18-0.03-0.23-0.12C248.23,161.45,248.32,161.48,248.36,161.58z"/>
<path class="st0" d="M318.27,134.81v0.01c0.02,0.11,0,0.19-0.11,0.25C318.16,134.96,318.18,134.87,318.27,134.81z"/>
<path class="st0" d="M318.16,135.07c0.01,0.09-0.01,0.18-0.11,0.24C318.05,135.21,318.08,135.13,318.16,135.07z"/>
<path class="st0" d="M318.03,135.39c0.01,0.12,0,0.23-0.12,0.29v-0.01C317.91,135.55,317.93,135.46,318.03,135.39z"/>
<path class="st0" d="M317.91,135.67v0.01c0.01,0.1-0.01,0.19-0.11,0.24C317.8,135.82,317.82,135.73,317.91,135.67z"/>
<path class="st0" d="M317.8,135.93c0,0.09-0.02,0.18-0.11,0.24c-0.01-0.08,0.01-0.14,0.07-0.19
	C317.76,135.96,317.78,135.94,317.8,135.93z"/>
<path class="st0" d="M317.66,136.26c0.01,0.11,0,0.21-0.11,0.27C317.55,136.42,317.57,136.32,317.66,136.26z"/>
<path class="st0" d="M317.55,136.53c0,0.1-0.01,0.19-0.11,0.25C317.43,136.68,317.46,136.59,317.55,136.53z"/>
<path class="st0" d="M256.43,165.74h-0.01c-0.1,0-0.18-0.03-0.24-0.13C256.29,165.61,256.38,165.63,256.43,165.74z"/>
<path class="st0" d="M256.67,165.87h-0.01c-0.1,0-0.19-0.03-0.24-0.13h0.01C256.54,165.73,256.63,165.75,256.67,165.87z"/>
<path class="st0" d="M317.42,136.85c0.01,0.12,0,0.22-0.12,0.28v0.01c0,0-0.01-0.01-0.01,0
	C317.3,137.03,317.32,136.92,317.42,136.85z"/>
<path class="st0" d="M317.3,137.14c0.01,0.11-0.01,0.19-0.11,0.25c-0.01-0.1,0.01-0.19,0.1-0.25
	C317.29,137.13,317.3,137.14,317.3,137.14z"/>
<path class="st0" d="M317.19,137.39c0,0.1-0.02,0.19-0.11,0.24C317.07,137.53,317.1,137.45,317.19,137.39z"/>
<path class="st0" d="M317.05,137.72c0.01,0.11,0,0.21-0.11,0.27V138c0,0-0.01-0.01-0.01,0
	C316.93,137.89,316.95,137.79,317.05,137.72z"/>
<path class="st0" d="M316.94,138c0,0.1-0.02,0.19-0.11,0.24c-0.01-0.1,0.01-0.18,0.1-0.24C316.93,137.99,316.94,138,316.94,138z"/>
<path class="st0" d="M316.82,138.57v0.04c-0.05,0-0.08-0.01-0.13-0.01h-0.01c0-0.11,0.02-0.22,0.12-0.29
	C316.81,138.4,316.82,138.48,316.82,138.57z"/>
<path class="st0" d="M316.69,138.6c0.01,0.1-0.01,0.2-0.12,0.25c0-0.1,0.02-0.18,0.11-0.25H316.69z"/>
<path class="st0" d="M316.57,138.85c0.01,0.1-0.01,0.19-0.1,0.25C316.46,139,316.49,138.91,316.57,138.85z"/>
<path class="st0" d="M316.44,139.18c0.01,0.11,0,0.22-0.12,0.28C316.32,139.35,316.34,139.25,316.44,139.18z"/>
<path class="st0" d="M226.36,179.4c-0.1,0-0.18-0.02-0.24-0.11c0.08,0,0.14,0.02,0.19,0.07
	C226.33,179.36,226.34,179.38,226.36,179.4z"/>
<path class="st0" d="M226.61,179.52c-0.1,0-0.19-0.01-0.24-0.11C226.47,179.41,226.56,179.43,226.61,179.52z"/>
<path class="st0" d="M316.07,140.06v0.01c0.02,0.11,0,0.19-0.11,0.25C315.96,140.22,315.97,140.12,316.07,140.06z"/>
<path class="st0" d="M227.95,180.14c-0.1,0-0.18-0.02-0.24-0.11c0.08-0.01,0.14,0.01,0.19,0.07
	C227.92,180.1,227.94,180.12,227.95,180.14z"/>
<path class="st0" d="M315.96,140.32c0,0.1-0.01,0.19-0.11,0.24C315.84,140.46,315.87,140.38,315.96,140.32z"/>
<path class="st0" d="M228.21,180.25c-0.1,0.01-0.2-0.01-0.25-0.11C228.06,180.14,228.15,180.16,228.21,180.25z"/>
<path class="st0" d="M229.05,180.62c-0.09,0-0.18-0.01-0.24-0.1c0.07-0.01,0.14,0.01,0.19,0.06
	C229.02,180.58,229.04,180.6,229.05,180.62z"/>
<path class="st0" d="M315.83,140.64c0.01,0.12,0,0.23-0.12,0.29v-0.01C315.71,140.81,315.73,140.71,315.83,140.64z"/>
<path class="st0" d="M315.71,140.92v0.01c0.01,0.1-0.01,0.19-0.11,0.25C315.6,141.07,315.62,140.98,315.71,140.92z"/>
<path class="st0" d="M315.46,141.52c0.01,0.11,0,0.21-0.11,0.26c0-0.1,0.01-0.19,0.1-0.25L315.46,141.52z"/>
<path class="st0" d="M315.35,141.78c0,0.1-0.01,0.19-0.11,0.25C315.23,141.93,315.26,141.84,315.35,141.78z"/>
<path class="st0" d="M262.31,142.02c-0.11,0.01-0.21-0.02-0.24-0.15C262.17,141.89,262.26,141.93,262.31,142.02z"/>
<path class="st0" d="M315.21,142.1c0.02,0.12,0.01,0.22-0.11,0.28v0.01c0,0-0.01-0.01-0.01,0
	C315.09,142.28,315.12,142.17,315.21,142.1z"/>
<path class="st0" d="M262.91,142.39c-0.1,0-0.19-0.02-0.23-0.13h0.01C262.79,142.26,262.87,142.3,262.91,142.39z"/>
<path class="st0" d="M315.1,142.39c0.01,0.11-0.01,0.19-0.11,0.25C314.98,142.54,315,142.45,315.1,142.39
	C315.09,142.38,315.1,142.39,315.1,142.39z"/>
<path class="st0" d="M149.59,142.51c0.01,0.1-0.01,0.19-0.1,0.25C149.48,142.66,149.5,142.57,149.59,142.51z"/>
<path class="st0" d="M263.53,142.76c-0.11,0-0.2-0.02-0.24-0.14C263.39,142.63,263.48,142.66,263.53,142.76z"/>
<path class="st0" d="M314.99,142.64c0,0.1-0.02,0.19-0.11,0.24C314.87,142.78,314.9,142.7,314.99,142.64z"/>
<path class="st0" d="M314.85,142.97c0.01,0.11,0,0.22-0.12,0.28C314.73,143.14,314.75,143.04,314.85,142.97z"/>
<path class="st0" d="M316.32,139.46c0.01,0.1-0.01,0.19-0.11,0.25C316.21,139.61,316.23,139.52,316.32,139.46z"/>
<path class="st0" d="M332.95,108.93c-0.06,0.12-0.17,0.12-0.29,0.11C332.73,108.94,332.84,108.92,332.95,108.93z"/>
<path class="st0" d="M332.59,109.06c-0.06,0.1-0.15,0.12-0.25,0.11C332.4,109.08,332.49,109.05,332.59,109.06z"/>
<path class="st0" d="M332.34,109.17c-0.05,0.11-0.15,0.13-0.26,0.12C332.14,109.19,332.23,109.17,332.34,109.17z"/>
<path class="st0" d="M83.71,113.56c-0.1,0.01-0.2,0-0.27-0.1C83.55,113.45,83.64,113.46,83.71,113.56z"/>
<path class="st0" d="M295.18,189.9c0,0.1-0.01,0.19-0.11,0.25C295.06,190.05,295.09,189.96,295.18,189.9z"/>
<path class="st0" d="M96.67,118.45c-0.08,0.01-0.13-0.01-0.18-0.07c-0.02,0-0.04-0.02-0.05-0.04
	C96.54,118.34,96.62,118.36,96.67,118.45z"/>
<path class="st0" d="M295.04,190.22c0.02,0.12,0.01,0.23-0.12,0.29C294.92,190.4,294.94,190.29,295.04,190.22z"/>
<path class="st0" d="M96.91,118.58c-0.07,0-0.13-0.02-0.18-0.08c-0.02,0-0.03-0.02-0.05-0.04
	C96.78,118.46,96.87,118.48,96.91,118.58z"/>
<path class="st0" d="M234.8,123.72c0,0.1-0.03,0.19-0.13,0.23c0-0.08,0.03-0.15,0.09-0.18C234.77,123.74,234.79,123.73,234.8,123.72
	z"/>
<path class="st0" d="M123.19,203.11c-0.13-0.05-0.11-0.15-0.1-0.25C123.18,202.91,123.2,203.01,123.19,203.11z"/>
<path class="st0" d="M283.81,128.09c-0.11,0.02-0.21,0-0.28-0.09C283.64,127.99,283.74,127.99,283.81,128.09z"/>
<path class="st0" d="M320.73,128.95L320.73,128.95c0,0.12-0.02,0.2-0.11,0.26c-0.01-0.11,0.01-0.19,0.1-0.26H320.73z"/>
<path class="st0" d="M320.59,129.27c0.01,0.12,0.01,0.24-0.12,0.3v-0.01C320.47,129.44,320.49,129.34,320.59,129.27z"/>
<path class="st0" d="M320.47,129.56v0.01c0.02,0.1,0,0.19-0.11,0.25v-0.01C320.36,129.7,320.38,129.62,320.47,129.56z"/>
<path class="st0" d="M232,130.06c-0.01-0.11,0-0.21,0.09-0.29C232.11,129.88,232.11,129.99,232,130.06z"/>
<path class="st0" d="M226.86,179.64c-0.04-0.02-0.08-0.05-0.12-0.07C226.81,179.55,226.84,179.58,226.86,179.64z"/>
<path class="st0" d="M227.12,179.76c-0.04-0.03-0.09-0.05-0.13-0.08C227.05,179.67,227.1,179.7,227.12,179.76z"/>
<path class="st0" d="M227.37,179.88c-0.04-0.03-0.09-0.05-0.14-0.08C227.3,179.79,227.35,179.81,227.37,179.88z"/>
<path class="st0" d="M227.64,180c-0.06-0.03-0.11-0.06-0.17-0.08C227.55,179.9,227.6,179.93,227.64,180z"/>
<path class="st0" d="M239.19,155.23c-0.07-0.01-0.11-0.04-0.12-0.11C239.13,155.14,239.17,155.17,239.19,155.23z"/>
<path class="st0" d="M242.37,157.8h-0.01c-0.06,0-0.11-0.03-0.13-0.1l-0.01-0.01h0.01c0.03,0,0.06,0.01,0.08,0.03
	C242.34,157.74,242.36,157.77,242.37,157.8z"/>
<path class="st0" d="M239.32,155.35c-0.07-0.01-0.12-0.05-0.13-0.12C239.23,155.27,239.28,155.31,239.32,155.35z"/>
<path class="st0" d="M228.47,180.37c-0.05-0.03-0.09-0.05-0.14-0.08C228.4,180.28,228.44,180.31,228.47,180.37z"/>
<path class="st0" d="M242.5,157.9c-0.07,0-0.12-0.03-0.14-0.1h0.01C242.42,157.84,242.45,157.87,242.5,157.9z"/>
<path class="st0" d="M239.44,155.46c-0.07,0-0.11-0.04-0.12-0.11C239.36,155.39,239.4,155.42,239.44,155.46z"/>
<path class="st0" d="M237.98,154.1c-0.06,0-0.1-0.04-0.1-0.1C237.9,154.04,237.94,154.08,237.98,154.1z"/>
<path class="st0" d="M229.32,180.74c-0.05-0.03-0.09-0.05-0.13-0.07C229.25,180.65,229.29,180.68,229.32,180.74z"/>
<path class="st0" d="M239.57,155.58c-0.07-0.01-0.11-0.04-0.12-0.11C239.49,155.5,239.53,155.54,239.57,155.58z"/>
<path class="st0" d="M238.1,154.22c-0.06,0-0.09-0.04-0.1-0.1C238.02,154.17,238.06,154.2,238.1,154.22z"/>
<path class="st0" d="M239.99,155.89c0.02,0.02,0.04,0.05,0.05,0.08c-0.07,0-0.11-0.04-0.13-0.1l-0.01-0.01h0.01
	C239.94,155.86,239.97,155.87,239.99,155.89z"/>
<path class="st0" d="M256.8,165.96c-0.07,0-0.12-0.02-0.14-0.09h0.01C256.72,165.88,256.75,165.92,256.8,165.96z"/>
<path class="st0" d="M240.17,156.08v0.01c-0.07-0.01-0.11-0.05-0.12-0.11c0.03,0,0.06,0.01,0.07,0.04
	C240.14,156.03,240.16,156.05,240.17,156.08z"/>
<path class="st0" d="M234.91,123.56c-0.03,0.05-0.07,0.1-0.1,0.15C234.81,123.64,234.83,123.59,234.91,123.56z"/>
<path class="st0" d="M240.3,156.2c-0.07-0.01-0.1-0.05-0.13-0.11v-0.01C240.21,156.12,240.26,156.16,240.3,156.2z"/>
<path class="st0" d="M240.42,156.3c-0.06,0-0.1-0.03-0.11-0.1C240.35,156.24,240.38,156.27,240.42,156.3z"/>
<path class="st0" d="M238.23,154.34c-0.07,0-0.1-0.04-0.11-0.1C238.15,154.29,238.18,154.32,238.23,154.34z"/>
<path class="st0" d="M240.78,156.58h-0.01c-0.06,0-0.1-0.04-0.12-0.1c0.03-0.01,0.05,0,0.07,0.02
	C240.75,156.52,240.76,156.55,240.78,156.58z"/>
<path class="st0" d="M234.67,123.95c-0.03,0.04-0.05,0.08-0.08,0.12C234.58,124,234.61,123.97,234.67,123.95z"/>
<path class="st0" d="M247.88,161.32c-0.08,0-0.14-0.03-0.17-0.1C247.78,161.23,247.83,161.28,247.88,161.32z"/>
<path class="st0" d="M240.77,156.58c0.05,0.04,0.09,0.08,0.14,0.11C240.84,156.68,240.79,156.65,240.77,156.58z"/>
<path class="st0" d="M241.03,156.8c-0.07,0-0.1-0.04-0.12-0.11C240.95,156.73,240.99,156.76,241.03,156.8z"/>
<path class="st0" d="M238.8,154.88c-0.06,0-0.11-0.05-0.11-0.11C238.76,154.77,238.8,154.81,238.8,154.88z"/>
<polygon class="st0" points="241.25,156.95 241.26,156.96 241.25,156.96 "/>
<path class="st0" d="M241.39,157.06v0.01c-0.07-0.01-0.11-0.04-0.13-0.11C241.32,156.96,241.36,157,241.39,157.06z"/>
<path class="st0" d="M225.28,178.91c-0.04,0-0.07,0.01-0.11,0.01C225.19,178.78,225.24,178.84,225.28,178.91z"/>
<path class="st0" d="M237.86,153.98c-0.06-0.01-0.1-0.04-0.1-0.1C237.78,153.92,237.81,153.96,237.86,153.98z"/>
<path class="st0" d="M281.52,193.73c-0.02,0.06-0.06,0.1-0.12,0.1C281.41,193.77,281.45,193.73,281.52,193.73z"/>
<polygon class="st0" points="281.53,193.72 281.52,193.73 281.52,193.72 "/>
<path class="st0" d="M281.32,193.88c0.02-0.03,0.04-0.04,0.07-0.04c-0.01,0.07-0.05,0.11-0.12,0.11
	C281.28,193.92,281.3,193.89,281.32,193.88z"/>
<path class="st0" d="M281.14,194.07c0.02-0.06,0.06-0.1,0.12-0.11C281.25,194.03,281.21,194.07,281.14,194.07L281.14,194.07z"/>
<path class="st0" d="M281.14,194.07L281.14,194.07c-0.02,0.07-0.06,0.11-0.13,0.12C281.03,194.13,281.08,194.09,281.14,194.07z"/>
<path class="st0" d="M281.01,194.19c-0.01,0.07-0.05,0.11-0.12,0.11C280.93,194.27,280.97,194.23,281.01,194.19z"/>
<path class="st0" d="M280.88,194.31c-0.01,0.07-0.05,0.1-0.12,0.1C280.8,194.38,280.84,194.34,280.88,194.31z"/>
<path class="st0" d="M241.39,157.06c0.04,0.04,0.09,0.07,0.13,0.11C241.45,157.17,241.4,157.13,241.39,157.06z"/>
<path class="st0" d="M225.54,179.03c-0.05-0.03-0.1-0.06-0.14-0.08C225.46,178.93,225.51,178.96,225.54,179.03z"/>
<path class="st0" d="M275.77,197.99V198c-0.03,0.06-0.07,0.09-0.14,0.08c0.01-0.01,0.01-0.02,0.03-0.03
	c0.03-0.02,0.05-0.04,0.07-0.05C275.74,197.99,275.76,197.99,275.77,197.99z"/>
<path class="st0" d="M238.94,155h-0.01c-0.06-0.01-0.1-0.05-0.12-0.11c0.04,0,0.06,0.01,0.08,0.03
	C238.92,154.94,238.93,154.96,238.94,155z"/>
<path class="st0" d="M225.79,179.14c-0.05-0.03-0.1-0.05-0.15-0.08C225.71,179.05,225.76,179.08,225.79,179.14z"/>
<path class="st0" d="M226.05,179.27c-0.07-0.01-0.13-0.03-0.17-0.09C225.96,179.17,226.02,179.2,226.05,179.27z"/>
<path class="st0" d="M238.94,155c0.06,0.01,0.1,0.05,0.12,0.11c-0.07,0-0.11-0.04-0.13-0.11H238.94z"/>
<path class="st0" d="M241.88,157.44c-0.07-0.01-0.12-0.04-0.14-0.1l-0.01-0.01h0.01c0.07,0,0.11,0.04,0.13,0.1L241.88,157.44z"/>
<path class="st0" d="M242.01,157.54c-0.07,0-0.11-0.04-0.13-0.1C241.93,157.47,241.96,157.5,242.01,157.54z"/>
<path class="st0" d="M228.73,180.49c-0.05-0.03-0.11-0.05-0.16-0.08C228.64,180.4,228.7,180.42,228.73,180.49z"/>
<path class="st0" d="M342.97,145.25c-0.13-0.16-0.12-0.35-0.12-0.53C343.04,144.86,342.97,145.06,342.97,145.25z"/>
<path class="st0" d="M341.26,137.06c-0.12-0.16-0.12-0.34-0.12-0.53C341.33,136.68,341.25,136.88,341.26,137.06z"/>
<path class="st0" d="M343.09,145.85c-0.12-0.16-0.12-0.34-0.11-0.52C343.16,145.47,343.09,145.67,343.09,145.85z"/>
<path class="st0" d="M341.38,137.66c-0.12-0.15-0.12-0.33-0.11-0.51C341.45,137.29,341.38,137.48,341.38,137.66z"/>
<path class="st0" d="M343.95,149.98c-0.03-0.04-0.04-0.08-0.05-0.12c-0.05-0.12-0.07-0.25-0.06-0.38
	C344.01,149.62,343.94,149.81,343.95,149.98z"/>
<path class="st0" d="M343.22,146.45c-0.12-0.15-0.13-0.33-0.11-0.51C343.28,146.08,343.21,146.27,343.22,146.45z"/>
<path class="st0" d="M341.51,138.26c-0.12-0.15-0.13-0.32-0.11-0.5C341.57,137.9,341.5,138.09,341.51,138.26z"/>
<path class="st0" d="M342.48,142.92c-0.12-0.16-0.12-0.34-0.11-0.52C342.55,142.54,342.48,142.74,342.48,142.92z"/>
<path class="st0" d="M343.34,147.05c-0.03-0.04-0.04-0.08-0.05-0.12c-0.05-0.12-0.07-0.25-0.06-0.38
	C343.4,146.69,343.33,146.88,343.34,147.05z"/>
<path class="st0" d="M343.83,149.38c-0.12-0.15-0.13-0.33-0.11-0.51C343.89,149.01,343.82,149.2,343.83,149.38z"/>
<path class="st0" d="M341.87,139.99c-0.12-0.16-0.12-0.34-0.11-0.52C341.94,139.61,341.87,139.81,341.87,139.99z"/>
<path class="st0" d="M343.58,148.18c-0.12-0.16-0.12-0.34-0.11-0.53C343.65,147.79,343.58,147.99,343.58,148.18z"/>
<path class="st0" d="M341.99,140.59c-0.11-0.15-0.12-0.33-0.11-0.51C342.06,140.22,341.99,140.41,341.99,140.59z"/>
<path class="st0" d="M343.7,148.78c-0.12-0.16-0.12-0.34-0.11-0.52C343.77,148.4,343.7,148.6,343.7,148.78z"/>
<path class="st0" d="M342.12,141.19c-0.03-0.04-0.05-0.08-0.05-0.12c-0.05-0.12-0.07-0.25-0.06-0.38
	C342.18,140.83,342.11,141.02,342.12,141.19z"/>
<path class="st0" d="M340.77,134.73c-0.12-0.15-0.12-0.33-0.11-0.51C340.84,134.36,340.77,134.55,340.77,134.73z"/>
<path class="st0" d="M342.6,143.52c-0.11-0.15-0.12-0.33-0.11-0.51C342.67,143.15,342.6,143.34,342.6,143.52z"/>
<path class="st0" d="M340.89,135.33c-0.11-0.15-0.12-0.32-0.1-0.5C340.96,134.97,340.89,135.16,340.89,135.33z"/>
<path class="st0" d="M342.73,144.12c-0.03-0.04-0.05-0.08-0.05-0.13c-0.05-0.11-0.07-0.24-0.06-0.37
	C342.79,143.76,342.72,143.95,342.73,144.12z"/>
<path class="st0" d="M344.19,151.11c-0.12-0.16-0.12-0.34-0.11-0.53C344.26,150.72,344.19,150.92,344.19,151.11z"/>
<path class="st0" d="M344.31,151.71c-0.11-0.16-0.12-0.34-0.11-0.52C344.38,151.33,344.31,151.53,344.31,151.71z"/>
<path class="st0" d="M344.44,152.31c-0.03-0.04-0.04-0.08-0.05-0.12c-0.05-0.13-0.07-0.26-0.06-0.39
	C344.5,151.94,344.43,152.13,344.44,152.31z"/>
<path class="st0" d="M340.64,134.13c-0.07-0.04-0.14-0.07-0.23-0.04c0.01-0.08,0.02-0.18,0.11-0.18
	C340.67,133.91,340.64,134.04,340.64,134.13z"/>
<path class="st0" d="M344.8,154.04c-0.12-0.16-0.12-0.34-0.11-0.53C344.87,153.66,344.8,153.85,344.8,154.04z"/>
<path class="st0" d="M344.93,154.64c-0.12-0.16-0.13-0.33-0.11-0.52C344.99,154.26,344.92,154.46,344.93,154.64z"/>
<path class="st0" d="M345.05,155.24c-0.03-0.04-0.04-0.08-0.05-0.12c-0.05-0.13-0.07-0.26-0.06-0.39
	C345.12,154.87,345.04,155.07,345.05,155.24z"/>
<path class="st0" d="M345.41,156.97c-0.12-0.16-0.12-0.34-0.11-0.53C345.49,156.59,345.41,156.78,345.41,156.97z"/>
<path class="st0" d="M345.54,157.57c-0.12-0.16-0.12-0.33-0.11-0.52C345.61,157.2,345.53,157.39,345.54,157.57z"/>
<path class="st0" d="M345.66,158.17c-0.03-0.04-0.04-0.08-0.05-0.12c-0.05-0.12-0.07-0.25-0.06-0.38
	C345.73,157.8,345.66,158,345.66,158.17z"/>
<path class="st0" d="M345.9,159.3c-0.12-0.16-0.12-0.35-0.11-0.54C345.98,158.91,345.9,159.11,345.9,159.3z"/>
<path class="st0" d="M345.78,158.7c-0.11-0.13-0.12-0.27-0.1-0.42C345.83,158.39,345.78,158.55,345.78,158.7z"/>
<path class="st0" d="M341.62,138.79c-0.11-0.12-0.11-0.27-0.1-0.42C341.67,138.48,341.63,138.64,341.62,138.79z"/>
<path class="st0" d="M344.55,152.84c-0.11-0.13-0.11-0.27-0.09-0.43C344.6,152.53,344.56,152.69,344.55,152.84z"/>
<path class="st0" d="M342.23,141.72c-0.11-0.12-0.11-0.27-0.1-0.42C342.28,141.41,342.24,141.57,342.23,141.72z"/>
<path class="st0" d="M344.68,153.44c-0.11-0.12-0.11-0.27-0.1-0.41C344.72,153.14,344.69,153.29,344.68,153.44z"/>
<path class="st0" d="M341.01,135.86c-0.11-0.12-0.11-0.27-0.1-0.42C341.06,135.55,341.02,135.71,341.01,135.86z"/>
<path class="st0" d="M342.84,144.65c-0.11-0.12-0.11-0.27-0.09-0.42C342.89,144.34,342.85,144.5,342.84,144.65z"/>
<path class="st0" d="M345.16,155.77c-0.1-0.13-0.11-0.27-0.09-0.42C345.21,155.46,345.17,155.62,345.16,155.77z"/>
<path class="st0" d="M344.06,150.51c-0.1-0.12-0.11-0.27-0.09-0.42C344.11,150.21,344.07,150.36,344.06,150.51z"/>
<path class="st0" d="M345.29,156.37c-0.11-0.12-0.11-0.27-0.1-0.41C345.33,156.07,345.3,156.22,345.29,156.37z"/>
<path class="st0" d="M342.35,142.32c-0.1-0.12-0.11-0.26-0.09-0.41C342.4,142.02,342.36,142.17,342.35,142.32z"/>
<path class="st0" d="M343.45,147.58c-0.1-0.12-0.11-0.27-0.09-0.42C343.5,147.28,343.46,147.43,343.45,147.58z"/>
<path class="st0" d="M341.13,136.46c-0.1-0.12-0.11-0.26-0.09-0.41C341.18,136.16,341.14,136.31,341.13,136.46z"/>
<path class="st0" d="M341.74,139.39c-0.1-0.12-0.11-0.26-0.09-0.41C341.79,139.09,341.75,139.24,341.74,139.39z"/>
<path class="st0" d="M327.82,168.78c0.01,0.11-0.01,0.21-0.11,0.28C327.7,168.95,327.71,168.85,327.82,168.78z"/>
<path class="st0" d="M327.69,169.15c0.01,0.09-0.01,0.17-0.07,0.24c0,0-0.01,0-0.02,0.01l-0.01,0.01v-0.02
	C327.58,169.29,327.6,169.21,327.69,169.15z"/>
<path class="st0" d="M327.61,169.49c-0.01-0.01-0.03-0.01-0.04-0.02c-0.02,0-0.03-0.01-0.04-0.02c0.01-0.01,0.02-0.01,0.04-0.03
	c0,0,0.01-0.01,0.02-0.01v-0.01h0.01C327.61,169.43,327.62,169.46,327.61,169.49z"/>
<path class="st0" d="M331.14,159.62c0,0.07,0,0.14-0.02,0.2c-0.02,0.05-0.04,0.1-0.08,0.13c0,0.02-0.02,0.03-0.03,0.04
	c-0.01-0.14-0.04-0.28,0.12-0.36v-0.01H331.14z"/>
<path class="st0" d="M331.01,159.99c0,0.11-0.02,0.21-0.08,0.3c-0.01,0.02-0.03,0.04-0.05,0.06
	C330.88,160.22,330.86,160.07,331.01,159.99z"/>
<path class="st0" d="M330.65,160.97v0.01c0,0.12-0.02,0.23-0.1,0.32c0,0.01-0.01,0.02-0.03,0.03
	C330.52,161.19,330.49,161.05,330.65,160.97z"/>
<path class="st0" d="M330.52,161.33v0.01c0.01,0.11-0.01,0.22-0.09,0.3c-0.01,0.02-0.02,0.04-0.04,0.05
	C330.39,161.56,330.37,161.41,330.52,161.33z"/>
<path class="st0" d="M330.16,162.31v0.01c0,0.12-0.01,0.23-0.1,0.32c0,0.01-0.02,0.03-0.03,0.04
	C330.03,162.54,330,162.39,330.16,162.31z"/>
<path class="st0" d="M329.68,163.66c0,0.06-0.01,0.13-0.03,0.2c-0.01,0.04-0.03,0.09-0.08,0.13c0,0.01-0.01,0.02-0.03,0.03
	c0-0.13-0.02-0.28,0.13-0.35v-0.01H329.68z"/>
<path class="st0" d="M329.54,164.03c0.01,0.11-0.01,0.22-0.09,0.3c-0.01,0.02-0.02,0.04-0.04,0.05c0.01-0.12-0.01-0.25,0.09-0.32
	C329.51,164.04,329.53,164.03,329.54,164.03z"/>
<path class="st0" d="M329.06,165.36c0,0.12-0.02,0.23-0.1,0.32v0.01c-0.01,0.01-0.02,0.02-0.03,0.04h-0.01
	c0.01-0.13-0.01-0.26,0.1-0.33c0.01-0.02,0.02-0.03,0.03-0.03L329.06,165.36z"/>
<path class="st0" d="M328.57,166.71c0,0.07-0.01,0.14-0.02,0.2c-0.02,0.06-0.05,0.11-0.11,0.16c0-0.13-0.03-0.27,0.12-0.36H328.57z"
	/>
<path class="st0" d="M331.63,158.28v0.05c0,0.03-0.01,0.05-0.01,0.07c-0.01,0.08-0.04,0.15-0.1,0.21c0,0.01-0.01,0.02-0.02,0.03
	c0,0-0.01,0-0.01,0.01c0-0.14-0.03-0.28,0.13-0.36v-0.01H331.63z"/>
<path class="st0" d="M330.03,162.68c0.01,0.11-0.01,0.22-0.09,0.31c-0.01,0.02-0.02,0.03-0.04,0.05
	C329.9,162.9,329.88,162.76,330.03,162.68z"/>
<path class="st0" d="M331.5,158.64c0,0.12-0.02,0.23-0.12,0.31c-0.01-0.12-0.01-0.23,0.11-0.3
	C331.49,158.64,331.5,158.64,331.5,158.64z"/>
<path class="st0" d="M331.37,159.01c0,0.11-0.01,0.21-0.11,0.28C331.25,159.18,331.25,159.08,331.37,159.01z"/>
<path class="st0" d="M331.24,159.38c0,0.1-0.01,0.18-0.1,0.24l-0.01,0.01v-0.01C331.12,159.52,331.14,159.44,331.24,159.38z"/>
<path class="st0" d="M330.88,160.35c0.01,0.11-0.01,0.22-0.11,0.29C330.76,160.53,330.77,160.42,330.88,160.35z"/>
<path class="st0" d="M330.75,160.72c0.01,0.1-0.01,0.2-0.1,0.26v-0.01C330.64,160.86,330.65,160.78,330.75,160.72z"/>
<path class="st0" d="M330.39,161.7c0.01,0.11-0.01,0.21-0.11,0.28C330.27,161.87,330.28,161.76,330.39,161.7z"/>
<path class="st0" d="M330.26,162.06c0.01,0.11-0.01,0.2-0.1,0.26v-0.01C330.15,162.21,330.16,162.12,330.26,162.06z"/>
<path class="st0" d="M329.9,163.04c0.01,0.11-0.01,0.22-0.11,0.29C329.78,163.22,329.79,163.11,329.9,163.04z"/>
<path class="st0" d="M329.77,163.41c0.01,0.1-0.01,0.18-0.09,0.25l-0.01,0.01v-0.01C329.66,163.55,329.67,163.47,329.77,163.41z"/>
<path class="st0" d="M329.41,164.38c0.01,0.12-0.01,0.22-0.1,0.3C329.29,164.56,329.3,164.45,329.41,164.38z"/>
<path class="st0" d="M329.15,165.12c0.01,0.1-0.01,0.18-0.09,0.24l-0.01,0.01C329.05,165.27,329.06,165.18,329.15,165.12z"/>
<path class="st0" d="M328.93,165.73c0,0.11-0.02,0.22-0.11,0.29c-0.02-0.11-0.01-0.21,0.1-0.29H328.93z"/>
<path class="st0" d="M328.8,166.09c0,0.11-0.02,0.21-0.11,0.28C328.68,166.26,328.69,166.16,328.8,166.09z"/>
<path class="st0" d="M328.67,166.46c0.01,0.1-0.02,0.19-0.11,0.25C328.56,166.61,328.57,166.52,328.67,166.46z"/>
<path class="st0" d="M328.44,167.07c0,0.12-0.01,0.22-0.11,0.3C328.32,167.25,328.32,167.14,328.44,167.07z"/>
<path class="st0" d="M328.31,167.44c0.01,0.11-0.01,0.2-0.11,0.28C328.19,167.61,328.2,167.5,328.31,167.44z"/>
<path class="st0" d="M329.28,164.75c0.01,0.11-0.01,0.21-0.1,0.28C329.17,164.92,329.18,164.81,329.28,164.75z"/>
<g>
	<path class="st1" d="M179.23,219.36c1.83-0.31,4.22-0.58,7.27-0.58c3.75,0,6.49,0.9,8.23,2.51c1.61,1.43,2.57,3.62,2.56,6.31
		c0,2.73-0.79,4.88-2.27,6.44c-2,2.19-5.27,3.31-8.97,3.3c-1.13,0-2.18-0.05-3.05-0.27L183,249.15l-3.79,0L179.23,219.36z
		 M183.01,233.9c0.83,0.22,1.87,0.31,3.14,0.32c4.57,0,7.36-2.28,7.36-6.44c0-3.98-2.74-5.91-6.92-5.91c-1.65,0-2.92,0.13-3.57,0.31
		L183.01,233.9z"/>
	<path class="st1" d="M204.79,219.02l3.79,0l-0.02,26.88l12.54,0.01l0,3.27l-16.33-0.01L204.79,219.02z"/>
	<path class="st1" d="M232.47,239.7l-3.06,9.48l-3.92,0l9.99-30.14l4.57,0l9.99,30.15l-4.05,0l-3.13-9.49L232.47,239.7z
		 M242.1,236.67l-2.87-8.68c-0.65-1.97-1.09-3.76-1.52-5.5l-0.09,0c-0.44,1.79-0.92,3.62-1.48,5.46l-2.88,8.72L242.1,236.67z"/>
	<path class="st1" d="M259.01,222.37l-8.93-0.01l0-3.31l21.73,0.02l0,3.31l-8.97-0.01l-0.02,26.84l-3.83,0L259.01,222.37z"/>
	<path class="st1" d="M281.27,219.08l-0.02,30.15l-3.79,0l0.02-30.15L281.27,219.08z"/>
	<path class="st1" d="M290.26,249.23l0.02-30.15l4.14,0l9.39,15.26c2.17,3.54,3.87,6.71,5.26,9.8l0.09-0.05
		c-0.35-4.03-0.43-7.69-0.43-12.39l0.01-12.61l3.57,0l-0.02,30.15l-3.83,0l-9.31-15.3c-2.04-3.36-4-6.8-5.48-10.07l-0.13,0.04
		c0.21,3.8,0.3,7.43,0.3,12.44l-0.01,12.88L290.26,249.23z"/>
	<path class="st1" d="M325.12,219.11l-0.01,17.85c-0.01,6.75,2.91,9.62,6.83,9.62c4.35,0,7.14-2.95,7.15-9.61l0.01-17.85l3.83,0
		l-0.01,17.58c-0.01,9.26-4.76,13.06-11.11,13.05c-6.01,0-10.54-3.54-10.53-12.89l0.01-17.76L325.12,219.11z"/>
	<path class="st1" d="M376.63,236.05c-0.21-4.2-0.47-9.26-0.43-13.02l-0.13,0c-1,3.53-2.23,7.29-3.71,11.45l-5.19,14.62l-2.87,0
		l-4.74-14.36c-1.39-4.25-2.56-8.14-3.39-11.72l-0.09,0c-0.09,3.76-0.31,8.81-0.58,13.33l-0.79,12.93l-3.61,0l2.07-30.15l4.83,0
		l5,14.59c1.22,3.71,2.22,7.02,2.95,10.16l0.13,0c0.74-3.04,1.79-6.35,3.1-10.15l5.24-14.58l4.83,0l1.81,30.15l-3.7,0L376.63,236.05
		z"/>
</g>
</svg>
